<svg width="154.598511" height="89.050781" viewBox="0 0 154.599 89.0508" fill="none" xmlns="http://www.w3.org/2000/svg" xmlns:xlink="http://www.w3.org/1999/xlink">
	<desc>
			Created with Pixso.
	</desc>
	<defs/>
	<path id="Форма 4" d="M118.15 89.05C116.75 89.05 115.39 88.7 114.05 88C112.72 87.3 111.77 86.16 111.19 84.58C111.13 84.39 111.19 84.25 111.38 84.14C111.56 84.05 111.72 84.16 111.84 84.49C112.48 85.7 113.29 86.58 114.26 87.14C115.25 87.71 116.29 88 117.38 88C117.63 88 117.89 87.98 118.17 87.95C118.46 87.92 118.74 87.87 119.01 87.81C121.16 87.3 122.86 86.03 124.1 84C125.34 81.97 126.22 79.59 126.75 76.86C127.29 74.13 127.63 71.39 127.75 68.63C127.89 65.87 127.92 63.5 127.84 61.53C126.08 62.54 124.25 63.43 122.38 64.21C120.5 64.97 118.55 65.59 116.52 66.09C115.57 66.35 114.48 66.56 113.24 66.72C112 66.87 110.68 66.95 109.28 66.95C106.8 66.95 104.37 66.49 101.98 65.58C99.61 64.65 97.97 62.88 97.07 60.28C96.83 59.66 96.67 59.01 96.61 58.35C96.55 57.66 96.52 57.01 96.52 56.39C96.52 54.55 96.79 52.75 97.33 51C97.87 49.25 98.45 47.67 99.07 46.28C97.62 45.39 96.33 44.31 95.21 43.04C94.11 41.77 93.28 40.31 92.7 38.67C92.45 37.91 92.26 37.15 92.12 36.39C92 35.62 91.93 34.88 91.93 34.18C91.93 31.33 92.73 28.72 94.31 26.34C95.9 23.96 97.87 21.94 100.21 20.3C102.57 18.64 104.9 17.55 107.19 17.04C107.44 16.98 108.02 16.89 108.94 16.76C109.87 16.62 110.74 16.55 111.56 16.55C112.59 16.55 113.13 16.69 113.19 16.95C113.32 17.2 113.22 17.32 112.89 17.32C112.01 17.32 111.15 17.32 110.33 17.32C109.51 17.32 108.65 17.41 107.75 17.6C105.59 18.11 103.49 19.12 101.42 20.62C99.36 22.11 97.65 23.93 96.28 26.09C94.92 28.24 94.24 30.62 94.24 33.23C94.24 33.93 94.3 34.64 94.42 35.37C94.55 36.1 94.73 36.85 94.98 37.62C95.94 40.29 97.66 42.48 100.15 44.18C102.24 40.18 104.55 36.68 107.08 33.67C109.62 30.65 112.29 27.76 115.08 25C117.88 22.24 120.71 19.3 123.56 16.18C123.56 15.61 123.55 15 123.52 14.37C123.49 13.73 123.47 13.1 123.47 12.46C123.47 10.94 123.55 9.41 123.7 7.86C123.87 6.29 124.21 4.94 124.7 3.81C125.09 2.97 125.59 2.13 126.19 1.27C126.8 0.42 127.57 0 128.52 0C129.15 0 129.69 0.2 130.12 0.62C130.57 1.03 130.93 1.54 131.19 2.18C131.44 2.75 131.57 3.45 131.57 4.27C131.57 5.67 131.2 7.06 130.47 8.46C129.74 9.86 128.9 11.14 127.94 12.32C126.99 13.5 126.14 14.53 125.38 15.41C125.38 18.02 125.58 20.67 125.98 23.37C126.4 26.07 126.81 28.72 127.19 31.32C128.65 29.49 130.38 27.77 132.38 26.16C134.38 24.53 136.56 23.43 138.91 22.86C139.67 22.66 140.5 22.55 141.38 22.55C142.65 22.55 143.88 22.86 145.05 23.46C146.23 24.07 147.1 25.2 147.66 26.86C148.05 28 148.24 29.28 148.24 30.67C148.24 32.31 148.02 34.01 147.57 35.76C147.13 37.5 146.69 39 146.24 40.28C144.78 44.21 142.78 47.76 140.24 50.9C137.7 54.05 134.74 56.73 131.38 58.95C131.44 59.97 131.5 61.03 131.57 62.11C131.63 63.18 131.66 64.26 131.66 65.35C131.66 68.65 131.36 71.97 130.75 75.3C130.15 78.63 129.05 81.52 127.47 83.95C125.89 86.4 123.54 88.01 120.43 88.77C119.79 88.95 119.03 89.05 118.15 89.05ZM125.38 14.09C125.83 13.58 126.42 12.7 127.15 11.46C127.88 10.22 128.53 8.9 129.1 7.51C129.67 6.11 129.96 4.97 129.96 4.09C129.96 3.7 129.92 3.44 129.84 3.32C129.78 3.13 129.69 2.95 129.57 2.76C129.44 2.56 129.25 2.46 129.01 2.46C128.62 2.46 128.22 2.73 127.8 3.27C127.39 3.82 127.13 4.27 127.01 4.65C126.43 5.86 126.03 7.4 125.8 9.27C125.58 11.15 125.44 12.75 125.38 14.09ZM106.61 46.28C108.7 46.28 110.72 45.79 112.66 44.81C114.6 43.82 116.39 42.59 118.03 41.14C119.69 39.68 121.14 38.27 122.38 36.9C123.62 35.54 124.56 34.48 125.19 33.72C124.87 30.99 124.56 28.28 124.26 25.58C123.98 22.86 123.75 20.14 123.56 17.41C122.05 19.07 120.49 20.7 118.89 22.3C117.31 23.88 115.79 25.52 114.33 27.23C112.67 29.14 111.13 31.15 109.7 33.28C108.28 35.4 106.96 37.61 105.75 39.9C105.24 40.79 104.76 41.71 104.31 42.67C103.87 43.62 103.43 44.6 102.98 45.62C104.13 46.06 105.34 46.28 106.61 46.28ZM131.1 57.53C134.08 55.63 136.69 53.38 138.94 50.81C141.2 48.24 142.97 45.21 144.24 41.72C144.81 40.12 145.22 38.67 145.47 37.37C145.74 36.07 145.87 34.88 145.87 33.81C145.87 31.27 145.26 29.36 144.05 28.09C142.84 26.82 141.29 26.18 139.38 26.18C137.66 26.18 135.75 26.71 133.66 27.76C131.57 28.8 129.47 30.37 127.38 32.46C128.01 36.66 128.73 40.86 129.52 45.04C130.31 49.23 130.84 53.39 131.1 57.53ZM112.8 64.18C113.88 64.18 114.94 64.11 115.98 63.95C117.04 63.8 117.98 63.63 118.8 63.44C121.98 62.66 124.93 61.52 127.66 60C127.6 55.81 127.32 51.61 126.84 47.39C126.38 43.16 125.89 38.92 125.38 34.67C124.68 35.87 123.7 37.25 122.43 38.81C121.15 40.36 119.66 41.85 117.94 43.28C116.23 44.7 114.38 45.9 112.38 46.86C110.38 47.8 108.3 48.28 106.15 48.28C104.87 48.28 103.6 48.09 102.33 47.72C102.07 48.6 101.83 49.59 101.61 50.67C101.39 51.74 101.28 52.82 101.28 53.9C101.28 55.24 101.47 56.57 101.84 57.9C102.74 60.32 104.25 61.97 106.38 62.86C108.5 63.74 110.64 64.18 112.8 64.18Z" fill="#FFA55C" fill-opacity="1.000000" fill-rule="nonzero"/>
	<path id="Форма 3" d="M6.8 68.24Q6.56 68.24 6.34 68.19Q5.39 67.97 4.65 66.82Q3.73 65.4 3.35 62.24Q3.3 61.99 3.3 61.64L3.3 60.89Q3.3 59.31 3.49 56.88Q3.69 54.46 3.97 51.54Q4.26 48.61 4.52 45.52Q4.79 42.41 4.98 39.43Q5.17 36.46 5.17 34.02Q5.17 30.98 4.79 29.12Q4.46 27.55 3.7 27.29Q3.56 27.25 3.39 27.25Q3.38 27.25 3.36 27.25L3.36 27.25Q2.75 27.27 2.17 27.95Q1.58 28.64 1.12 29.48Q0.66 30.32 0.39 30.82Q0.23 31.14 0.15 31.12Q0.11 31.11 0.09 30.98Q0.04 30.8 0.02 30.63Q0 30.46 0 30.27Q0 29.36 0.42 28.35Q0.79 27.49 1.39 26.86L1.39 26.86Q1.5 26.75 1.61 26.65Q2.12 26.18 2.71 26.03L2.71 26.03Q3.02 25.95 3.35 25.95Q3.55 25.95 3.69 25.97Q3.83 25.99 3.98 26.05Q4.36 26.15 4.7 26.34L4.7 26.34Q5.98 27.07 6.51 29.12Q7.19 31.71 7.19 35.4Q7.19 38.19 6.92 41.31Q6.66 44.43 6.35 47.58Q6.04 50.72 5.77 53.55Q5.51 56.38 5.51 58.55Q5.51 59.17 5.54 59.72Q5.56 60.27 5.61 60.75Q6 63.77 6.66 64.99Q7.26 66.09 8.01 66.21Q8.1 66.22 8.2 66.22Q9.16 66.22 10.19 65.17Q11.22 64.11 12.23 62.53Q13.24 60.94 14.06 59.36Q15.16 57.29 16.07 54.52Q16.99 51.73 17.73 48.84Q18.48 45.96 18.9 43.57Q18.42 42.75 18.32 41.89Q18.23 41.03 18.23 39.68Q18.23 38.24 18.76 37.43Q19.26 36.64 19.81 36.61L19.81 36.61Q19.84 36.61 19.86 36.61Q20.04 36.61 20.19 36.67Q20.79 36.91 21.02 38.05Q21.55 40.44 22.07 43.11Q22.6 45.77 23.25 48.32Q23.89 50.86 24.76 53.03Q26.54 57.29 28.03 59.14Q29.51 60.98 30.76 60.98Q30.95 60.98 31.13 60.95Q32.2 60.74 33.04 59.33Q34.03 57.68 34.69 54.97Q35.36 52.25 35.7 49.07Q36.04 45.87 36.04 42.8Q36.04 40.25 35.82 38.05Q35.61 35.84 35.08 34.44Q34.88 33.87 34.79 33.25Q34.69 32.62 34.69 32.1Q34.69 31.42 34.86 30.94Q35 30.55 35.24 30.48Q35.3 30.46 35.36 30.46Q35.75 30.46 36.14 31.04Q36.66 31.71 37.12 32.89Q37.58 34.07 37.91 34.92Q38.29 35.88 38.91 37.25Q39.55 38.62 40.24 39.75Q40.93 40.87 41.61 41.12Q41.63 41.13 41.65 41.15Q41.7 41.2 41.7 41.31Q41.7 41.35 41.69 41.4Q41.63 41.63 41.27 41.79Q40.83 41.98 40.65 41.93Q39.55 41.4 38.8 40.8Q38.06 40.21 37.1 38.58Q37.14 39.43 37.14 40.32L37.14 42.08Q37.14 44.58 36.97 47.07Q36.8 49.57 36.32 52.11Q35.27 57.63 33.66 59.99Q32.15 62.2 30.48 62.32L30.48 62.32Q30.38 62.33 30.28 62.33Q30.25 62.33 30.22 62.33Q28.8 62.31 27.42 61.07Q26.01 59.79 24.8 57.68Q23.61 55.57 22.74 52.97Q21.98 50.47 21.44 48.39Q20.91 46.3 20.63 44.72Q19.86 48.18 18.63 51.59Q17.41 54.98 15.92 57.98Q14.43 60.98 12.83 63.29Q11.22 65.6 9.66 66.91Q8.1 68.24 6.8 68.24ZM100.27 80.77Q100.01 80.77 99.76 80.74Q97.81 80.55 96.01 78.94Q93.97 77.12 92.6 73.66Q91.24 70.21 91 65.31Q89.51 65.45 88.27 65.45Q85.48 65.45 84.2 64.72Q83.29 64.21 83.03 63.46Q82.93 63.18 82.93 62.86Q82.93 61.71 84.03 60.32Q85.14 58.92 87.11 57.52Q89.07 56.1 91.72 54.94Q92.62 50.05 94.66 44.37Q96.71 38.67 100.17 32.29Q100.35 31.96 100.62 31.8Q100.86 31.66 101.18 31.66Q101.34 31.66 101.48 31.71L101.48 31.71Q101.73 31.77 101.94 31.96Q102.07 32.06 102.15 32.2Q102.28 32.42 102.28 32.72Q102.28 32.95 102.13 33.34Q99.06 39.54 97.02 44.7Q94.98 49.85 93.83 54.13Q95.99 53.31 98.44 52.78Q100.89 52.25 103.43 52.16Q104.05 52.16 104.09 52.32Q104.1 52.33 104.1 52.35Q104.1 52.35 104.1 52.36Q104.08 52.55 103.64 52.71Q103.2 52.87 102.13 52.92Q99.78 53.07 97.64 53.58Q95.51 54.08 93.63 54.8Q92.92 57.59 92.53 59.96Q92.16 62.33 92.05 64.35Q97 63.29 101.05 61.25Q105.11 59.21 108.22 56.53Q111.35 53.84 113.46 50.95Q114.81 49.14 115.41 47.72Q116 46.3 116 45.25Q116 44.11 115.48 43.33Q115.29 43.05 115.04 42.82Q114.08 41.93 112.5 41.53Q110.92 41.12 109.04 41.12Q107.07 41.12 105.06 41.48Q103.04 41.84 101.41 42.46Q101.03 42.56 100.89 42.56Q100.47 42.56 100.33 42.37Q100.27 42.27 100.27 42.13Q100.27 42.02 100.3 41.92Q100.4 41.63 100.79 41.45Q106.7 38.1 109.2 35.37Q111.69 32.62 111.69 30.75Q111.69 30.06 111.42 29.5Q111.05 28.74 110.18 28.23Q108.67 27.34 106.22 27.34Q104.3 27.34 101.89 27.97Q99.49 28.59 96.95 29.98Q94.84 31.14 93.13 32.7Q91.43 34.25 90.25 35.92Q89.07 37.57 88.5 39.04Q88.04 40.2 88.04 41.08Q88.04 41.3 88.07 41.5Q88.07 41.6 88.09 41.72Q88.11 41.84 88.11 41.93Q88.11 42.82 87.72 43.06Q87.58 43.14 87.4 43.14Q87.06 43.14 86.69 42.66Q86.34 42.18 86.34 41.21Q86.34 39.77 87.22 38.14Q88.11 36.5 89.62 34.85Q91.14 33.2 93.01 31.73Q94.89 30.27 96.9 29.21Q99.49 27.82 102.01 27.15Q104.53 26.47 106.65 26.47Q109.57 26.47 111.4 27.63Q112.4 28.26 112.85 29.17Q113.23 29.91 113.23 30.84Q113.23 32.77 111.35 35.31Q109.48 37.85 105.06 40.92Q106.55 40.69 107.84 40.57Q109.14 40.44 110.25 40.44Q114.38 40.44 116.21 41.81Q117.29 42.61 117.74 43.67Q118.07 44.44 118.07 45.34Q118.07 46.92 117.18 48.77Q116.3 50.62 114.71 52.59Q112.41 55.42 108.93 58.07Q105.45 60.7 101.14 62.62Q96.86 64.55 92 65.21Q91.99 65.62 91.99 66.01Q91.99 69.75 92.8 72.27Q93.69 75.06 95.07 76.62Q96.47 78.18 97.86 78.82Q99.26 79.46 100.17 79.46Q100.84 79.46 101.07 79.23Q101.12 79.17 101.18 79.13Q101.37 78.98 101.66 78.98Q101.72 78.98 101.77 78.99Q102.09 79.03 102.38 79.28Q102.68 79.54 102.71 79.83L102.71 79.83Q102.71 79.87 102.71 79.9Q102.71 79.99 102.68 80.07Q102.61 80.24 102.38 80.33Q101.32 80.77 100.27 80.77ZM50.01 69.73Q49.66 69.73 49.4 69.57L49.4 69.57Q49.3 69.51 49.22 69.43Q49.07 69.3 49.05 69.15L49.05 69.15Q49.04 69.12 49.04 69.08Q49.04 68.93 49.14 68.77Q49.82 67.76 50.42 65.91Q51.01 64.07 51.47 62.05Q51.77 60.74 52 59.58Q51.9 59.67 51.78 59.77Q50.92 60.46 50.05 60.46Q49.41 60.46 48.97 60.16Q48.63 59.92 48.42 59.5Q47.61 57.91 47.61 56.65Q47.61 55.37 47.55 54.89Q47.32 55.46 46.64 56.7Q45.97 57.91 45.06 59.24Q44.15 60.56 43.15 61.48Q42.14 62.38 41.27 62.38Q40.81 62.38 40.48 62.17Q40.2 61.98 40.02 61.64Q39.64 60.89 39.64 59.88Q39.64 58.59 40.09 56.87Q40.55 55.14 41.31 53.29Q42.08 51.43 43.06 49.87Q44.05 48.32 45.15 47.33Q46.26 46.35 47.32 46.35Q47.64 46.35 47.92 46.44Q48.51 46.63 48.97 47.19Q49.38 47.69 49.55 48.25Q49.67 48.65 49.67 49.09Q49.67 49.71 49.47 50.12Q49.3 50.5 49.08 50.53L49.08 50.53Q49.06 50.53 49.04 50.53Q49.02 50.53 49 50.53Q48.84 50.5 48.71 50.24Q48.23 49.14 47.68 48.66Q47.18 48.22 46.65 48.18L46.65 48.18Q46.6 48.18 46.55 48.18Q46.53 48.18 46.51 48.18Q45.57 48.2 44.65 49.25Q43.72 50.33 43.15 51.73Q42.67 52.78 42.26 54.25Q41.85 55.71 41.58 57.13Q41.32 58.55 41.32 59.45Q41.32 60.8 41.83 61.04Q41.95 61.09 42.08 61.09Q43.04 61.09 44.53 58.97Q45.64 57.43 46.52 55.42Q47.41 53.4 48.03 51.91Q48.28 51.43 48.56 51.29Q48.85 51.15 49.1 51.15Q49.44 51.15 49.63 51.32Q49.77 51.44 49.84 51.63Q50 52.11 50 52.44Q50 53.7 49.76 54.68Q49.52 55.66 49.52 57.06Q49.52 58.07 49.69 58.91Q49.84 59.62 50.17 59.72Q50.23 59.74 50.3 59.74Q50.82 59.74 51.64 58.39Q51.75 58.16 51.94 58.07Q52.06 58.01 52.22 58.01Q52.26 58.01 52.3 58.01Q52.56 56.64 52.69 56.05Q52.04 55.43 51.89 54.71Q51.83 54.47 51.83 54.22Q51.83 53.45 52.18 52.92Q52.55 52.39 52.75 52.44Q52.84 52.44 53.01 52.52Q53.16 52.59 53.17 52.67L53.17 52.67Q53.17 52.68 53.17 52.69Q53.46 50.43 53.65 48.2Q53.85 45.96 53.85 44.1Q53.85 42.56 53.7 41.37Q53.56 40.16 53.27 39.43Q52.98 38.72 52.98 38.33Q52.98 37.93 53.15 37.83Q53.21 37.8 53.27 37.8Q53.34 37.8 53.4 37.82L53.4 37.82Q53.64 37.89 53.8 38.24Q54.33 39.29 54.59 41.55Q54.86 43.8 54.86 46.69Q54.86 48.66 54.75 50.85Q54.66 53.03 54.42 55.18Q55.29 54.41 56.19 53.67Q57.11 52.92 57.79 52.11L57.79 52.07Q57.79 52.05 57.78 52.03Q57.77 51.94 57.7 51.87Q57.63 51.77 57.63 51.59Q57.63 51.25 58.11 50.77Q58.6 50.29 59.38 49.39Q60.18 48.5 61.04 47.77Q61.91 47.03 62.63 47.07Q63.03 47.07 63.15 47.26Q63.2 47.34 63.2 47.45Q63.2 47.88 62.38 48.75Q61.57 49.62 60.45 50.58Q59.32 51.54 58.38 52.34Q57.45 53.12 57.15 53.4L55.34 55.42L54.38 56.43Q55 58.01 55.81 59.55Q56.63 61.09 57.66 62.1Q58.6 63.02 59.6 63.1Q59.7 63.11 59.8 63.11Q60.95 63.11 62.15 61.71Q62.97 60.7 63.54 59.46Q64.11 58.21 64.5 57.59Q64.62 57.35 64.74 57.19Q64.64 56.13 64.64 54.89Q64.64 52.01 65.36 50.26Q66.08 48.5 67.14 47.7Q68.2 46.87 69.16 46.87Q69.66 46.87 70.08 47.05L70.08 47.05Q70.46 47.22 70.78 47.53Q70.88 47.62 70.96 47.72Q71.46 48.34 71.46 49.37Q71.46 50.53 70.78 51.81Q70.17 52.96 69.33 53.93Q69.26 54.02 69.18 54.11Q68.25 55.14 67.34 55.46Q67.14 55.57 66.86 55.57Q66.74 55.57 66.7 55.51Q66.67 55.48 66.67 55.42Q66.67 55.04 67.43 54.56Q68.39 53.88 69.25 52.52Q70.11 51.15 70.11 50.1Q70.11 49.46 69.82 49.11Q69.61 48.84 69.35 48.77Q69.26 48.75 69.16 48.75Q68.44 48.75 67.59 49.87Q66.76 51 66.37 53.74Q66.28 54.5 66.2 55.21Q66.13 55.9 66.13 56.58Q66.13 59.26 66.95 60.77Q67.55 61.88 68.42 62.17Q68.74 62.29 69.11 62.29Q70.27 62.29 71.69 60.93Q73.14 59.55 74.53 56.62Q74.85 55.9 75.25 55.86L75.25 55.86Q75.28 55.85 75.3 55.85Q75.4 55.85 75.47 55.9Q75.59 55.99 75.59 56.24Q75.59 56.58 75.4 56.95Q74.16 60.04 72.37 61.71Q70.59 63.39 68.92 63.39Q68.61 63.39 68.32 63.32Q66.97 63.03 65.92 61.35Q65.29 60.34 64.97 58.76Q64.95 58.79 64.93 58.83Q64.45 59.79 64 60.63Q63.54 61.46 63.31 61.8Q62.39 63.15 61.48 63.77Q60.56 64.39 59.7 64.39Q59.61 64.39 59.53 64.39L59.53 64.39Q58.51 64.33 57.54 63.57Q56.49 62.77 55.6 61.48Q54.7 60.18 53.99 58.73Q53.46 62.38 52.69 65.29Q51.93 68.19 51.01 69.29Q50.75 69.56 50.43 69.66Q50.23 69.73 50.01 69.73ZM129.01 69.73Q128.67 69.73 128.41 69.57Q128.31 69.51 128.23 69.43Q128.08 69.3 128.05 69.15Q128.05 69.12 128.05 69.08Q128.05 68.93 128.15 68.77Q128.83 67.76 129.42 65.91Q130.02 64.07 130.48 62.05Q130.78 60.74 131.01 59.58Q130.91 59.67 130.79 59.77Q129.92 60.46 129.06 60.46Q128.41 60.46 127.98 60.16Q127.64 59.92 127.43 59.5Q126.62 57.91 126.62 56.65Q126.62 55.37 126.56 54.89Q126.33 55.46 125.65 56.7Q124.98 57.91 124.07 59.24Q123.16 60.56 122.16 61.48Q121.15 62.38 120.28 62.38Q119.81 62.38 119.49 62.17Q119.21 61.98 119.03 61.64Q118.65 60.89 118.65 59.88Q118.65 58.59 119.1 56.87Q119.55 55.14 120.32 53.29Q121.09 51.43 122.07 49.87Q123.06 48.32 124.16 47.33Q125.27 46.35 126.33 46.35Q126.64 46.35 126.93 46.44Q127.52 46.63 127.98 47.19Q128.39 47.69 128.56 48.25Q128.68 48.65 128.68 49.09Q128.68 49.71 128.48 50.12Q128.31 50.5 128.09 50.53Q128.07 50.53 128.05 50.53Q128.03 50.53 128.01 50.53Q127.85 50.5 127.72 50.24Q127.24 49.14 126.69 48.66Q126.19 48.22 125.66 48.18Q125.61 48.18 125.55 48.18Q125.54 48.18 125.52 48.18L125.52 48.18Q124.57 48.2 123.66 49.25Q122.73 50.33 122.16 51.73Q121.67 52.78 121.26 54.25Q120.85 55.71 120.58 57.13Q120.33 58.55 120.33 59.45Q120.33 60.8 120.84 61.04Q120.95 61.09 121.09 61.09Q122.05 61.09 123.54 58.97Q124.65 57.43 125.53 55.42Q126.42 53.4 127.04 51.91Q127.29 51.43 127.57 51.29Q127.86 51.15 128.11 51.15Q128.45 51.15 128.64 51.32Q128.78 51.44 128.85 51.63Q129.01 52.11 129.01 52.44Q129.01 53.7 128.76 54.68Q128.53 55.66 128.53 57.06Q128.53 58.07 128.69 58.91Q128.84 59.62 129.18 59.72Q129.24 59.74 129.3 59.74Q129.83 59.74 130.65 58.39Q130.76 58.16 130.94 58.07Q131.07 58.01 131.23 58.01Q131.27 58.01 131.31 58.01Q131.57 56.64 131.7 56.05Q131.05 55.43 130.89 54.71Q130.84 54.47 130.84 54.22Q130.84 53.45 131.19 52.92Q131.56 52.39 131.75 52.44Q131.85 52.44 132.01 52.52Q132.16 52.59 132.18 52.67Q132.18 52.68 132.18 52.69Q132.47 50.43 132.66 48.2Q132.86 45.96 132.86 44.1Q132.86 42.56 132.7 41.37Q132.56 40.16 132.28 39.43Q131.99 38.72 131.99 38.33Q131.99 37.93 132.16 37.83Q132.21 37.8 132.28 37.8Q132.35 37.8 132.41 37.82Q132.65 37.89 132.81 38.24Q133.34 39.29 133.6 41.55Q133.87 43.8 133.87 46.69Q133.87 48.66 133.76 50.85Q133.67 53.03 133.43 55.18Q134.3 54.41 135.2 53.67Q136.12 52.92 136.79 52.11L136.79 52.07Q136.79 52.05 136.79 52.03Q136.78 51.94 136.71 51.87Q136.64 51.77 136.64 51.59Q136.64 51.25 137.12 50.77Q137.6 50.29 138.39 49.39Q139.19 48.5 140.05 47.77Q140.92 47.03 141.63 47.07Q142.04 47.07 142.16 47.26Q142.21 47.34 142.21 47.45Q142.21 47.88 141.39 48.75Q140.58 49.62 139.45 50.58Q138.33 51.54 137.39 52.34Q136.45 53.12 136.16 53.4L134.35 55.42L133.38 56.43Q134 58.01 134.81 59.55Q135.63 61.09 136.67 62.1Q137.61 63.02 138.61 63.1Q138.71 63.11 138.81 63.11Q139.96 63.11 141.15 61.71Q141.97 60.7 142.55 59.46Q143.12 58.21 143.51 57.59Q143.63 57.35 143.75 57.19Q143.65 56.13 143.65 54.89Q143.65 52.01 144.36 50.26Q145.09 48.5 146.14 47.7Q147.21 46.87 148.17 46.87Q148.67 46.87 149.09 47.05Q149.47 47.22 149.79 47.53Q149.88 47.62 149.97 47.72L149.97 47.72Q150.47 48.34 150.47 49.37Q150.47 50.53 149.79 51.81Q149.18 52.96 148.34 53.93L148.34 53.93Q148.26 54.02 148.18 54.11Q147.26 55.14 146.34 55.46Q146.14 55.57 145.86 55.57Q145.75 55.57 145.71 55.51Q145.68 55.48 145.68 55.42Q145.68 55.04 146.44 54.56Q147.4 53.88 148.25 52.52Q149.12 51.15 149.12 50.1Q149.12 49.46 148.83 49.11Q148.62 48.84 148.35 48.77Q148.27 48.75 148.17 48.75Q147.45 48.75 146.6 49.87Q145.77 51 145.38 53.74Q145.29 54.5 145.21 55.21Q145.14 55.9 145.14 56.58Q145.14 59.26 145.96 60.77Q146.56 61.88 147.43 62.17Q147.75 62.29 148.11 62.29Q149.27 62.29 150.7 60.93Q152.14 59.55 153.54 56.62Q153.86 55.9 154.25 55.86Q154.28 55.85 154.31 55.85Q154.41 55.85 154.47 55.9Q154.59 55.99 154.59 56.24Q154.59 56.58 154.41 56.95Q153.16 60.04 151.38 61.71Q149.6 63.39 147.93 63.39Q147.62 63.39 147.33 63.32L147.33 63.32Q145.98 63.03 144.93 61.35Q144.3 60.34 143.98 58.76Q143.96 58.79 143.94 58.83Q143.46 59.79 143 60.63Q142.55 61.46 142.31 61.8Q141.4 63.15 140.49 63.77Q139.57 64.39 138.7 64.39Q138.62 64.39 138.54 64.39Q137.52 64.33 136.55 63.57Q135.49 62.77 134.6 61.48Q133.71 60.18 133 58.73Q132.47 62.38 131.7 65.29Q130.94 68.19 130.02 69.29Q129.76 69.56 129.44 69.66Q129.24 69.73 129.01 69.73ZM88.45 64.83Q88.98 64.83 89.6 64.76Q90.23 64.69 90.95 64.59Q90.94 64.09 90.94 63.57Q90.94 62.03 91.04 60.37Q91.19 58.16 91.57 55.76Q88.5 57.34 86.72 59.29Q84.95 61.23 84.95 62.72Q84.95 63.03 85.05 63.3Q85.24 63.84 85.82 64.23Q86.68 64.83 88.45 64.83Z" fill="#1F1711" fill-opacity="1.000000" fill-rule="evenodd"/>
</svg>
