<svg width="16.938477" height="16.966797" viewBox="0 0 16.9385 16.9668" fill="none" xmlns="http://www.w3.org/2000/svg" xmlns:xlink="http://www.w3.org/1999/xlink">
	<desc>
			Created with Pixso.
	</desc>
	<defs/>
	<path id="Vector" d="M12.05 3.99C12.05 3.76 12.15 3.53 12.32 3.36C12.48 3.19 12.71 3.1 12.95 3.1C13.19 3.1 13.42 3.19 13.58 3.36C13.75 3.53 13.85 3.76 13.85 3.99C13.85 4.23 13.75 4.46 13.58 4.63C13.42 4.8 13.19 4.89 12.95 4.89C12.71 4.89 12.48 4.8 12.32 4.63C12.15 4.46 12.05 4.23 12.05 3.99Z" fill="#CEAAD0" fill-opacity="1.000000" fill-rule="nonzero"/>
	<path id="Vector" d="M8.47 4.22C7.34 4.22 6.25 4.67 5.45 5.47C4.65 6.26 4.2 7.35 4.2 8.48C4.2 9.61 4.65 10.69 5.45 11.49C6.25 12.29 7.34 12.74 8.47 12.74C9.6 12.74 10.68 12.29 11.48 11.49C12.28 10.69 12.73 9.61 12.73 8.48C12.73 7.35 12.28 6.26 11.48 5.47C10.68 4.67 9.6 4.22 8.47 4.22ZM5.55 8.48C5.55 7.7 5.86 6.96 6.4 6.42C6.95 5.87 7.69 5.56 8.47 5.56C9.24 5.56 9.98 5.87 10.53 6.42C11.07 6.96 11.38 7.7 11.38 8.48C11.38 9.25 11.07 9.99 10.53 10.54C9.98 11.09 9.24 11.39 8.47 11.39C7.69 11.39 6.95 11.09 6.4 10.54C5.86 9.99 5.55 9.25 5.55 8.48Z" fill="#CEAAD0" fill-opacity="1.000000" fill-rule="evenodd"/>
	<path id="Vector" d="M13.18 0.26C10.05 -0.09 6.88 -0.09 3.75 0.26C1.94 0.46 0.49 1.88 0.27 3.69C-0.1 6.87 -0.1 10.08 0.27 13.26C0.49 15.08 1.94 16.5 3.75 16.7C6.88 17.05 10.05 17.05 13.18 16.7C14.99 16.5 16.44 15.08 16.65 13.26C17.03 10.08 17.03 6.87 16.65 3.69C16.44 1.88 14.99 0.46 13.18 0.26ZM3.9 1.59C6.93 1.26 10 1.26 13.03 1.59C14.22 1.73 15.18 2.67 15.32 3.85C15.68 6.93 15.68 10.03 15.32 13.11C15.25 13.69 14.98 14.22 14.57 14.63C14.15 15.04 13.61 15.3 13.03 15.36C10 15.7 6.93 15.7 3.9 15.36C3.32 15.3 2.78 15.04 2.36 14.63C1.95 14.22 1.68 13.69 1.61 13.11C1.25 10.03 1.25 6.93 1.61 3.85C1.68 3.27 1.95 2.73 2.36 2.33C2.78 1.92 3.32 1.66 3.9 1.59Z" fill="#CEAAD0" fill-opacity="1.000000" fill-rule="evenodd"/>
</svg>
