<svg width="35.010742" height="22.323242" viewBox="0 0 35.0107 22.3232" fill="none" xmlns="http://www.w3.org/2000/svg" xmlns:xlink="http://www.w3.org/1999/xlink">
	<desc>
			Created with Pixso.
	</desc>
	<defs/>
	<path id="Vector" d="M34.73 18.17C33.91 16.52 32.84 15.02 31.54 13.72C31.11 13.23 30.66 12.76 30.19 12.31L30.13 12.25C29.95 12.08 29.78 11.91 29.61 11.74C31.38 9.28 32.89 6.65 34.12 3.88L34.17 3.77L34.21 3.65C34.37 3.11 34.56 2.07 33.9 1.14C33.21 0.17 32.12 0 31.39 0L28.02 0C27.31 -0.03 26.61 0.16 26.02 0.55C25.43 0.94 24.98 1.5 24.73 2.16C24.01 3.89 23.1 5.53 22.02 7.07L22.02 3.12C22.02 2.61 21.97 1.75 21.43 1.03C20.77 0.17 19.83 0 19.17 0L13.82 0C13.12 -0.02 12.45 0.24 11.93 0.7C11.41 1.17 11.1 1.83 11.05 2.52L11.04 2.59L11.04 2.66C11.04 3.38 11.33 3.92 11.56 4.26C11.66 4.41 11.77 4.55 11.84 4.63L11.86 4.65C11.93 4.75 11.98 4.81 12.03 4.88C12.16 5.05 12.35 5.33 12.41 6.04L12.41 8.25C11.33 6.45 10.45 4.55 9.78 2.56L9.77 2.53L9.76 2.5C9.57 2.02 9.28 1.32 8.69 0.79C8.01 0.17 7.2 0 6.46 0L3.04 0C2.3 0 1.4 0.17 0.73 0.88C0.07 1.58 0 2.41 0 2.85L0 3.05L0.04 3.25C0.98 7.64 2.94 11.76 5.74 15.28C7.02 17.3 8.76 18.99 10.82 20.21C12.87 21.43 15.19 22.15 17.58 22.31L17.64 22.32L17.7 22.32C18.79 22.32 19.93 22.22 20.78 21.66C21.93 20.89 22.02 19.71 22.02 19.12L22.02 17.41C22.32 17.66 22.68 17.98 23.13 18.41C23.68 18.95 24.11 19.42 24.48 19.83L24.68 20.05C24.96 20.37 25.25 20.69 25.51 20.95C25.83 21.27 26.23 21.63 26.73 21.9C27.28 22.19 27.85 22.32 28.45 22.32L31.87 22.32C32.6 22.32 33.63 22.14 34.36 21.3C35.15 20.38 35.09 19.26 34.84 18.45L34.8 18.3L34.73 18.17ZM26.15 18.33C25.68 17.81 25.2 17.3 24.71 16.8L24.71 16.8C22.67 14.84 21.72 14.5 21.05 14.5C20.69 14.5 20.3 14.54 20.04 14.86C19.93 15.01 19.85 15.19 19.82 15.38C19.78 15.6 19.77 15.82 19.77 16.05L19.77 19.12C19.77 19.5 19.71 19.66 19.53 19.78C19.3 19.94 18.79 20.07 17.72 20.07C15.67 19.93 13.68 19.3 11.92 18.25C10.16 17.19 8.67 15.73 7.59 13.99L7.58 13.97L7.56 13.95C4.95 10.7 3.13 6.89 2.25 2.81C2.25 2.62 2.29 2.5 2.36 2.43C2.43 2.35 2.6 2.25 3.04 2.25L6.46 2.25C6.84 2.25 7.04 2.33 7.18 2.46C7.34 2.61 7.48 2.85 7.65 3.3C8.49 5.76 9.63 8.07 10.7 9.77C11.24 10.62 11.77 11.33 12.24 11.83C12.48 12.08 12.71 12.28 12.94 12.43C13.15 12.57 13.4 12.68 13.65 12.68C13.78 12.68 13.93 12.67 14.08 12.6C14.24 12.53 14.38 12.41 14.46 12.25C14.61 11.97 14.66 11.56 14.66 11.01L14.66 5.95C14.58 4.73 14.21 4.04 13.85 3.54C13.77 3.45 13.7 3.35 13.62 3.25L13.6 3.23C13.54 3.15 13.48 3.07 13.42 2.99C13.34 2.9 13.3 2.79 13.29 2.67C13.3 2.55 13.36 2.44 13.45 2.36C13.54 2.28 13.66 2.24 13.78 2.25L19.17 2.25C19.48 2.25 19.58 2.32 19.63 2.39C19.71 2.49 19.77 2.69 19.77 3.12L19.77 9.91C19.77 10.72 20.14 11.26 20.68 11.26C21.31 11.26 21.75 10.89 22.54 10.1L22.55 10.09L22.56 10.08C24.32 7.93 25.75 5.55 26.82 2.99L26.83 2.97C26.91 2.75 27.06 2.56 27.26 2.42C27.46 2.29 27.7 2.23 27.94 2.25L31.39 2.25C31.86 2.25 32.01 2.37 32.06 2.44C32.11 2.51 32.15 2.67 32.06 2.99C30.83 5.74 29.31 8.36 27.52 10.79L27.51 10.81C27.33 11.07 27.14 11.37 27.12 11.7C27.09 12.06 27.24 12.39 27.52 12.75C27.72 13.04 28.13 13.44 28.55 13.85L28.59 13.89C29.02 14.32 29.5 14.79 29.88 15.24L29.89 15.25L29.9 15.26C31.04 16.39 31.98 17.7 32.7 19.14C32.81 19.53 32.74 19.73 32.65 19.83C32.55 19.95 32.32 20.07 31.88 20.07L28.45 20.07C28.22 20.07 27.99 20.02 27.78 19.91C27.53 19.76 27.3 19.58 27.1 19.36C26.89 19.15 26.65 18.89 26.37 18.57L26.15 18.33L26.15 18.33Z" fill="#FFA55C" fill-opacity="1.000000" fill-rule="evenodd"/>
</svg>
