<svg width="31.500000" height="22.844727" viewBox="0 0 31.5 22.8447" fill="none" xmlns="http://www.w3.org/2000/svg" xmlns:xlink="http://www.w3.org/1999/xlink">
	<desc>
			Created with Pixso.
	</desc>
	<defs/>
	<path id="Vector" d="M31.5 11.32C31.5 11.24 31.5 11.15 31.49 11.05C31.49 10.77 31.48 10.45 31.47 10.11C31.45 9.12 31.4 8.15 31.32 7.23C31.21 5.96 31.06 4.9 30.85 4.1C30.63 3.28 30.19 2.52 29.58 1.91C28.98 1.3 28.22 0.87 27.39 0.64C26.4 0.37 24.45 0.21 21.71 0.11C20.4 0.06 19.01 0.03 17.61 0.01C17.12 0 16.67 0 16.26 0L15.23 0C14.82 0 14.37 0 13.88 0.01C12.48 0.03 11.09 0.06 9.78 0.11C7.04 0.21 5.09 0.38 4.1 0.64C3.27 0.87 2.51 1.3 1.91 1.91C1.3 2.52 0.86 3.28 0.64 4.1C0.43 4.9 0.28 5.96 0.17 7.23C0.09 8.15 0.04 9.12 0.02 10.11C0.01 10.45 0 10.77 0 11.05C0 11.15 0 11.24 0 11.32L0 11.52C0 11.59 0 11.68 0 11.78C0 12.07 0.01 12.39 0.02 12.73C0.04 13.71 0.09 14.69 0.17 15.61C0.28 16.88 0.43 17.94 0.64 18.73C1.09 20.41 2.41 21.74 4.1 22.19C5.09 22.46 7.04 22.62 9.78 22.73C11.09 22.78 12.48 22.81 13.88 22.83C14.37 22.83 14.82 22.84 15.23 22.84L16.26 22.84C16.67 22.84 17.12 22.83 17.61 22.83C19.01 22.81 20.4 22.78 21.71 22.73C24.45 22.62 26.4 22.46 27.39 22.19C29.08 21.74 30.4 20.42 30.85 18.73C31.06 17.94 31.21 16.88 31.32 15.61C31.4 14.69 31.45 13.71 31.47 12.73C31.48 12.39 31.49 12.07 31.49 11.78C31.49 11.68 31.5 11.59 31.5 11.52L31.5 11.32ZM28.96 11.5C28.96 11.58 28.96 11.66 28.96 11.75C28.96 12.03 28.95 12.33 28.94 12.66C28.92 13.59 28.87 14.53 28.8 15.39C28.7 16.53 28.57 17.45 28.4 18.08C28.18 18.89 27.54 19.53 26.73 19.75C26 19.94 24.14 20.1 21.61 20.2C20.33 20.25 18.95 20.28 17.58 20.29C17.1 20.3 16.65 20.3 16.25 20.3L15.24 20.3L13.91 20.29C12.54 20.28 11.16 20.25 9.88 20.2C7.35 20.1 5.49 19.94 4.76 19.75C3.95 19.53 3.31 18.89 3.09 18.08C2.92 17.45 2.79 16.53 2.69 15.39C2.62 14.53 2.58 13.59 2.55 12.66C2.54 12.33 2.53 12.02 2.53 11.75C2.53 11.66 2.53 11.57 2.53 11.5L2.53 11.33C2.53 11.26 2.53 11.18 2.53 11.08C2.53 10.81 2.54 10.51 2.55 10.18C2.57 9.25 2.62 8.31 2.69 7.44C2.79 6.31 2.92 5.38 3.09 4.76C3.31 3.95 3.95 3.3 4.76 3.09C5.49 2.89 7.35 2.73 9.88 2.64C11.16 2.59 12.54 2.56 13.91 2.54C14.4 2.53 14.84 2.53 15.24 2.53L16.25 2.53L17.58 2.54C18.95 2.56 20.33 2.59 21.61 2.64C24.14 2.74 26 2.89 26.73 3.09C27.54 3.31 28.18 3.95 28.4 4.76C28.57 5.38 28.7 6.31 28.8 7.44C28.87 8.31 28.91 9.25 28.94 10.18C28.95 10.51 28.96 10.81 28.96 11.08C28.96 11.18 28.96 11.26 28.96 11.33L28.96 11.5ZM12.62 16.13L20.77 11.38L12.62 6.71L12.62 16.13Z" fill="#FFA55C" fill-opacity="1.000000" fill-rule="nonzero"/>
</svg>
