<svg width="28.002441" height="25.687103" viewBox="0 0 28.0024 25.6871" fill="none" xmlns="http://www.w3.org/2000/svg" xmlns:xlink="http://www.w3.org/1999/xlink">
	<desc>
			Created with Pixso.
	</desc>
	<defs/>
	<path id="Vector" d="M25.84 0C25.46 0.01 25.11 0.12 24.8 0.25C24.51 0.37 23.39 0.84 21.64 1.6C19.88 2.35 17.56 3.35 15.08 4.41C10.12 6.55 4.55 8.95 1.69 10.17C1.59 10.22 1.21 10.34 0.82 10.65C0.42 10.96 0 11.6 0 12.32C0 12.9 0.27 13.47 0.62 13.81C0.96 14.16 1.33 14.33 1.64 14.46C2.78 14.92 6.32 16.37 6.99 16.64C7.22 17.36 8.5 21.28 8.8 22.23C9 22.87 9.18 23.26 9.42 23.58C9.55 23.74 9.69 23.87 9.86 23.98C9.93 24.03 10 24.06 10.08 24.09L10.08 24.09C10.1 24.1 10.11 24.11 10.13 24.12C10.16 24.13 10.19 24.13 10.23 24.14C10.41 24.2 10.59 24.23 10.75 24.23C11.43 24.23 11.85 23.86 11.85 23.86L11.87 23.84L15.39 20.8L19.64 24.83C19.7 24.91 20.26 25.68 21.5 25.68C22.23 25.68 22.81 25.31 23.18 24.92C23.56 24.53 23.79 24.12 23.89 23.6L23.89 23.6C23.98 23.11 27.9 2.96 27.9 2.96L27.9 2.99C28.01 2.47 28.04 1.98 27.92 1.5C27.79 1.01 27.45 0.55 27.04 0.3C26.63 0.06 26.22 -0.02 25.84 0ZM25.62 2.44C25.62 2.47 25.63 2.45 25.62 2.49L25.62 2.51L25.61 2.52C25.61 2.52 21.74 22.41 21.59 23.17C21.6 23.11 21.56 23.23 21.51 23.29C21.44 23.25 21.3 23.18 21.3 23.18L21.27 23.16L15.46 17.66L11.34 21.21L12.57 16.31C12.57 16.31 20.22 8.39 20.68 7.93C21.05 7.57 21.12 7.44 21.12 7.31C21.12 7.14 21.04 7.02 20.84 7.02C20.66 7.02 20.42 7.19 20.29 7.27C18.62 8.34 11.28 12.61 7.99 14.53C7.47 14.31 3.83 12.83 2.6 12.32C2.61 12.32 2.61 12.32 2.62 12.32C5.47 11.09 11.05 8.69 16 6.56C18.48 5.49 20.81 4.49 22.56 3.74C24.29 3 25.49 2.49 25.62 2.44Z" fill="#2C383F" fill-opacity="1.000000" fill-rule="nonzero"/>
</svg>
