<svg width="276.671875" height="51.218994" viewBox="0 0 276.672 51.219" fill="none" xmlns="http://www.w3.org/2000/svg" xmlns:xlink="http://www.w3.org/1999/xlink">
	<desc>
			Created with Pixso.
	</desc>
	<defs>
		<linearGradient x1="0.000000" y1="25.609497" x2="276.671753" y2="25.609497" id="paint_linear_51_1034_0" gradientUnits="userSpaceOnUse">
			<stop stop-color="#EA422A"/>
			<stop offset="0.094788" stop-color="#EC5128"/>
			<stop offset="0.523442" stop-color="#F69020"/>
			<stop offset="0.836995" stop-color="#FDB71B"/>
			<stop offset="1.000000" stop-color="#FFC619"/>
		</linearGradient>
		<linearGradient x1="0.000000" y1="25.609497" x2="276.671753" y2="25.609497" id="paint_linear_51_1035_0" gradientUnits="userSpaceOnUse">
			<stop stop-color="#EA422A"/>
			<stop offset="0.094788" stop-color="#EC5128"/>
			<stop offset="0.523442" stop-color="#F69020"/>
			<stop offset="0.836995" stop-color="#FDB71B"/>
			<stop offset="1.000000" stop-color="#FFC619"/>
		</linearGradient>
		<linearGradient x1="-0.000114" y1="25.609497" x2="276.671631" y2="25.609497" id="paint_linear_51_1037_0" gradientUnits="userSpaceOnUse">
			<stop stop-color="#EA422A"/>
			<stop offset="0.094788" stop-color="#EC5128"/>
			<stop offset="0.523442" stop-color="#F69020"/>
			<stop offset="0.836995" stop-color="#FDB71B"/>
			<stop offset="1.000000" stop-color="#FFC619"/>
		</linearGradient>
		<linearGradient x1="-0.000114" y1="25.609497" x2="276.671631" y2="25.609497" id="paint_linear_51_1038_0" gradientUnits="userSpaceOnUse">
			<stop stop-color="#EA422A"/>
			<stop offset="0.094788" stop-color="#EC5128"/>
			<stop offset="0.523442" stop-color="#F69020"/>
			<stop offset="0.836995" stop-color="#FDB71B"/>
			<stop offset="1.000000" stop-color="#FFC619"/>
		</linearGradient>
		<linearGradient x1="0.000702" y1="25.609497" x2="276.671814" y2="25.609497" id="paint_linear_51_1040_0" gradientUnits="userSpaceOnUse">
			<stop stop-color="#EA422A"/>
			<stop offset="0.094788" stop-color="#EC5128"/>
			<stop offset="0.523442" stop-color="#F69020"/>
			<stop offset="0.836995" stop-color="#FDB71B"/>
			<stop offset="1.000000" stop-color="#FFC619"/>
		</linearGradient>
		<linearGradient x1="0.000702" y1="25.609497" x2="276.671814" y2="25.609497" id="paint_linear_51_1041_0" gradientUnits="userSpaceOnUse">
			<stop stop-color="#EA422A"/>
			<stop offset="0.094788" stop-color="#EC5128"/>
			<stop offset="0.523442" stop-color="#F69020"/>
			<stop offset="0.836995" stop-color="#FDB71B"/>
			<stop offset="1.000000" stop-color="#FFC619"/>
		</linearGradient>
		<linearGradient x1="-0.000595" y1="25.609497" x2="276.672424" y2="25.609497" id="paint_linear_51_1044_0" gradientUnits="userSpaceOnUse">
			<stop stop-color="#EA422A"/>
			<stop offset="0.094788" stop-color="#EC5128"/>
			<stop offset="0.523442" stop-color="#F69020"/>
			<stop offset="0.836995" stop-color="#FDB71B"/>
			<stop offset="1.000000" stop-color="#FFC619"/>
		</linearGradient>
		<linearGradient x1="-0.000595" y1="25.609497" x2="276.672424" y2="25.609497" id="paint_linear_51_1046_0" gradientUnits="userSpaceOnUse">
			<stop stop-color="#EA422A"/>
			<stop offset="0.094788" stop-color="#EC5128"/>
			<stop offset="0.523442" stop-color="#F69020"/>
			<stop offset="0.836995" stop-color="#FDB71B"/>
			<stop offset="1.000000" stop-color="#FFC619"/>
		</linearGradient>
		<linearGradient x1="-0.000595" y1="25.609497" x2="276.672424" y2="25.609497" id="paint_linear_51_1048_0" gradientUnits="userSpaceOnUse">
			<stop stop-color="#EA422A"/>
			<stop offset="0.094788" stop-color="#EC5128"/>
			<stop offset="0.523442" stop-color="#F69020"/>
			<stop offset="0.836995" stop-color="#FDB71B"/>
			<stop offset="1.000000" stop-color="#FFC619"/>
		</linearGradient>
		<linearGradient x1="-0.000122" y1="25.609467" x2="276.671570" y2="25.609467" id="paint_linear_51_1051_0" gradientUnits="userSpaceOnUse">
			<stop stop-color="#EA422A"/>
			<stop offset="0.094788" stop-color="#EC5128"/>
			<stop offset="0.523442" stop-color="#F69020"/>
			<stop offset="0.836995" stop-color="#FDB71B"/>
			<stop offset="1.000000" stop-color="#FFC619"/>
		</linearGradient>
		<linearGradient x1="-0.000122" y1="25.609467" x2="276.671570" y2="25.609467" id="paint_linear_51_1053_0" gradientUnits="userSpaceOnUse">
			<stop stop-color="#EA422A"/>
			<stop offset="0.094788" stop-color="#EC5128"/>
			<stop offset="0.523442" stop-color="#F69020"/>
			<stop offset="0.836995" stop-color="#FDB71B"/>
			<stop offset="1.000000" stop-color="#FFC619"/>
		</linearGradient>
		<linearGradient x1="-0.000122" y1="25.609467" x2="276.671570" y2="25.609467" id="paint_linear_51_1055_0" gradientUnits="userSpaceOnUse">
			<stop stop-color="#EA422A"/>
			<stop offset="0.094788" stop-color="#EC5128"/>
			<stop offset="0.523442" stop-color="#F69020"/>
			<stop offset="0.836995" stop-color="#FDB71B"/>
			<stop offset="1.000000" stop-color="#FFC619"/>
		</linearGradient>
		<linearGradient x1="0.000214" y1="25.609497" x2="276.671783" y2="25.609497" id="paint_linear_51_1058_0" gradientUnits="userSpaceOnUse">
			<stop stop-color="#EA422A"/>
			<stop offset="0.094788" stop-color="#EC5128"/>
			<stop offset="0.523442" stop-color="#F69020"/>
			<stop offset="0.836995" stop-color="#FDB71B"/>
			<stop offset="1.000000" stop-color="#FFC619"/>
		</linearGradient>
		<linearGradient x1="0.000214" y1="25.609497" x2="276.671783" y2="25.609497" id="paint_linear_51_1060_0" gradientUnits="userSpaceOnUse">
			<stop stop-color="#EA422A"/>
			<stop offset="0.094788" stop-color="#EC5128"/>
			<stop offset="0.523442" stop-color="#F69020"/>
			<stop offset="0.836995" stop-color="#FDB71B"/>
			<stop offset="1.000000" stop-color="#FFC619"/>
		</linearGradient>
		<linearGradient x1="0.000214" y1="25.609497" x2="276.671783" y2="25.609497" id="paint_linear_51_1062_0" gradientUnits="userSpaceOnUse">
			<stop stop-color="#EA422A"/>
			<stop offset="0.094788" stop-color="#EC5128"/>
			<stop offset="0.523442" stop-color="#F69020"/>
			<stop offset="0.836995" stop-color="#FDB71B"/>
			<stop offset="1.000000" stop-color="#FFC619"/>
		</linearGradient>
		<linearGradient x1="-0.000046" y1="25.609497" x2="276.671631" y2="25.609497" id="paint_linear_51_1065_0" gradientUnits="userSpaceOnUse">
			<stop stop-color="#EA422A"/>
			<stop offset="0.094788" stop-color="#EC5128"/>
			<stop offset="0.523442" stop-color="#F69020"/>
			<stop offset="0.836995" stop-color="#FDB71B"/>
			<stop offset="1.000000" stop-color="#FFC619"/>
		</linearGradient>
		<linearGradient x1="-0.000046" y1="25.609497" x2="276.671631" y2="25.609497" id="paint_linear_51_1067_0" gradientUnits="userSpaceOnUse">
			<stop stop-color="#EA422A"/>
			<stop offset="0.094788" stop-color="#EC5128"/>
			<stop offset="0.523442" stop-color="#F69020"/>
			<stop offset="0.836995" stop-color="#FDB71B"/>
			<stop offset="1.000000" stop-color="#FFC619"/>
		</linearGradient>
		<linearGradient x1="-0.000046" y1="25.609497" x2="276.671631" y2="25.609497" id="paint_linear_51_1069_0" gradientUnits="userSpaceOnUse">
			<stop stop-color="#EA422A"/>
			<stop offset="0.094788" stop-color="#EC5128"/>
			<stop offset="0.523442" stop-color="#F69020"/>
			<stop offset="0.836995" stop-color="#FDB71B"/>
			<stop offset="1.000000" stop-color="#FFC619"/>
		</linearGradient>
	</defs>
	<path id="Vector" d="M19.2 23.67L31.27 1.1L24.98 1.1L15.95 17.96L6.38 1.1L0 1.1L12.86 23.75L16.1 29.46L27.91 50.11L34.3 50.11L19.2 23.67Z" fill="url(#paint_linear_51_1034_0)" fill-opacity="1.000000" fill-rule="nonzero"/>
	<path id="Vector" d="M19.2 23.67L31.27 1.1L24.98 1.1L15.95 17.96L6.38 1.1L0 1.1L12.86 23.75L16.1 29.46L27.91 50.11L34.3 50.11L19.2 23.67Z" fill="url(#paint_linear_51_1035_0)" fill-opacity="1.000000" fill-rule="nonzero"/>
	<path id="Vector" d="M53.68 1.1L53.68 13.39L61.88 31.86L47.61 31.86L47.61 37.38L64.21 37.38L69.61 50.11L75.64 50.11L53.68 1.1Z" fill="url(#paint_linear_51_1037_0)" fill-opacity="1.000000" fill-rule="nonzero"/>
	<path id="Vector" d="M53.68 1.1L53.68 13.39L61.88 31.86L47.61 31.86L47.61 37.38L64.21 37.38L69.61 50.11L75.64 50.11L53.68 1.1Z" fill="url(#paint_linear_51_1038_0)" fill-opacity="1.000000" fill-rule="nonzero"/>
	<path id="Vector" d="M254.71 1.1L254.71 13.39L262.9 31.86L248.64 31.86L248.64 37.38L265.24 37.38L270.63 50.11L276.67 50.11L254.71 1.1Z" fill="url(#paint_linear_51_1040_0)" fill-opacity="1.000000" fill-rule="nonzero"/>
	<path id="Vector" d="M254.71 1.1L254.71 13.39L262.9 31.86L248.64 31.86L248.64 37.38L265.24 37.38L270.63 50.11L276.67 50.11L254.71 1.1Z" fill="url(#paint_linear_51_1041_0)" fill-opacity="1.000000" fill-rule="nonzero"/>
	<path id="Vector" d="M125.33 1.1L130.89 1.1L130.89 50.11L125.33 50.11L125.33 1.1Z" fill="url(#paint_linear_51_1044_0)" fill-opacity="1.000000" fill-rule="evenodd"/>
	<path id="Vector" d="M125.33 1.1L130.89 1.1L130.89 50.11L125.33 50.11L125.33 1.1Z" fill="url(#paint_linear_51_1046_0)" fill-opacity="1.000000" fill-rule="evenodd"/>
	<path id="Vector" d="M125.33 1.1L130.89 1.1L130.89 50.11L125.33 50.11L125.33 1.1Z" fill="url(#paint_linear_51_1048_0)" fill-opacity="1.000000" fill-rule="evenodd"/>
	<path id="Vector" d="M144.21 50.11L150.72 50.11L180.8 1.1L144.69 1.1L144.69 6.62L170.91 6.62L144.21 50.11Z" fill="url(#paint_linear_51_1051_0)" fill-opacity="1.000000" fill-rule="nonzero"/>
	<path id="Vector" d="M144.21 50.11L150.72 50.11L180.8 1.1L144.69 1.1L144.69 6.62L170.91 6.62L144.21 50.11Z" fill="url(#paint_linear_51_1053_0)" fill-opacity="1.000000" fill-rule="nonzero"/>
	<path id="Vector" d="M144.21 50.11L150.72 50.11L180.8 1.1L144.69 1.1L144.69 6.62L170.91 6.62L144.21 50.11Z" fill="url(#paint_linear_51_1055_0)" fill-opacity="1.000000" fill-rule="nonzero"/>
	<path id="Vector" d="M189.91 50.41L194.88 19.12L209.8 51.21L224.72 19.12L229.69 50.41L235.32 50.41L227.32 0L209.8 37.75L192.29 0L184.28 50.41L189.91 50.41Z" fill="url(#paint_linear_51_1058_0)" fill-opacity="1.000000" fill-rule="nonzero"/>
	<path id="Vector" d="M189.91 50.41L194.88 19.12L209.8 51.21L224.72 19.12L229.69 50.41L235.32 50.41L227.32 0L209.8 37.75L192.29 0L184.28 50.41L189.91 50.41Z" fill="url(#paint_linear_51_1060_0)" fill-opacity="1.000000" fill-rule="nonzero"/>
	<path id="Vector" d="M189.91 50.41L194.88 19.12L209.8 51.21L224.72 19.12L229.69 50.41L235.32 50.41L227.32 0L209.8 37.75L192.29 0L184.28 50.41L189.91 50.41Z" fill="url(#paint_linear_51_1062_0)" fill-opacity="1.000000" fill-rule="nonzero"/>
	<path id="Vector" d="M94.83 23.01L86.01 23.01L104.77 50.11L112.02 50.11L97.22 28.74C103.82 27.61 108.85 21.89 108.85 15.02C108.85 7.34 102.56 1.1 94.83 1.1L88.95 1.1L88.95 7.03L94.83 7.03C99.27 7.03 102.88 10.61 102.88 15.02C102.88 19.42 99.27 23.01 94.83 23.01Z" fill="url(#paint_linear_51_1065_0)" fill-opacity="1.000000" fill-rule="nonzero"/>
	<path id="Vector" d="M94.83 23.01L86.01 23.01L104.77 50.11L112.02 50.11L97.22 28.74C103.82 27.61 108.85 21.89 108.85 15.02C108.85 7.34 102.56 1.1 94.83 1.1L88.95 1.1L88.95 7.03L94.83 7.03C99.27 7.03 102.88 10.61 102.88 15.02C102.88 19.42 99.27 23.01 94.83 23.01Z" fill="url(#paint_linear_51_1067_0)" fill-opacity="1.000000" fill-rule="nonzero"/>
	<path id="Vector" d="M94.83 23.01L86.01 23.01L104.77 50.11L112.02 50.11L97.22 28.74C103.82 27.61 108.85 21.89 108.85 15.02C108.85 7.34 102.56 1.1 94.83 1.1L88.95 1.1L88.95 7.03L94.83 7.03C99.27 7.03 102.88 10.61 102.88 15.02C102.88 19.42 99.27 23.01 94.83 23.01Z" fill="url(#paint_linear_51_1069_0)" fill-opacity="1.000000" fill-rule="nonzero"/>
</svg>
