<svg width="61.632080" height="61.620396" viewBox="0 0 61.6321 61.6204" fill="none" xmlns="http://www.w3.org/2000/svg" xmlns:xlink="http://www.w3.org/1999/xlink">
	<desc>
			Created with Pixso.
	</desc>
	<defs>
		<linearGradient x1="30.816078" y1="0.000000" x2="30.816078" y2="61.620399" id="paint_linear_51_978_0" gradientUnits="userSpaceOnUse">
			<stop stop-color="#FFC619"/>
			<stop offset="0.520833" stop-color="#F69020"/>
			<stop offset="1.000000" stop-color="#EA422A"/>
		</linearGradient>
	</defs>
	<path id="Vector" d="M54.22 3.43e-5C52.58 3.43e-5 50.95 0.61 49.71 1.85L47.28 4.28C46.81 4.75 46.76 5.5 47.16 6.04L44.31 8.88C38.51 14.69 33.67 16.45 28.8 18.07C23.95 19.69 18.98 21.17 13.88 26.28L1.59 38.57C-0.54 40.69 -0.54 44.18 1.59 46.31L8.45 53.17L15.3 60.02C17.43 62.15 20.92 62.15 23.04 60.02L35.33 47.73C40.44 42.63 41.92 37.67 43.54 32.81C45.16 27.95 46.92 23.1 52.73 17.3L55.58 14.45C56.11 14.86 56.86 14.8 57.33 14.33L59.76 11.9C62.24 9.42 62.24 5.37 59.76 2.89L58.72 1.85C57.48 0.61 55.85 -0.01 54.22 3.43e-5ZM54.22 2.65C55.16 2.66 56.1 3.02 56.83 3.74L57.87 4.79C59.32 6.24 59.32 8.55 57.87 10L56.39 11.48L53.26 8.35C53.23 8.31 53.18 8.28 53.14 8.24L50.13 5.23L51.6 3.74C52.33 3.02 53.27 2.65 54.22 2.65ZM30.81 2.66C30.07 2.66 29.47 3.27 29.47 4C29.47 4.74 30.07 5.34 30.81 5.34C31.55 5.34 32.15 4.74 32.15 4C32.15 3.27 31.55 2.66 30.81 2.66ZM38.85 6.68C38.11 6.68 37.51 7.29 37.51 8.02C37.51 8.76 38.11 9.36 38.85 9.36C39.59 9.36 40.19 8.76 40.19 8.02C40.19 7.29 39.59 6.68 38.85 6.68ZM49.04 7.94L53.67 12.57L50.83 15.41C48.82 17.42 47.28 19.35 46.01 21.23L40.38 15.6C42.26 14.33 44.19 12.79 46.21 10.78L49.04 7.94ZM38.05 17.05L44.56 23.57C43.42 25.6 42.58 27.55 41.89 29.42L34.62 26.99L32.19 19.72C34.06 19.03 36.02 18.2 38.05 17.05ZM29.66 20.61L32.29 28.48C32.42 28.88 32.73 29.19 33.13 29.32L41 31.95C41 31.95 41 31.96 41 31.96C39.36 36.88 38.12 41.15 33.45 45.84L21.15 58.13C20.05 59.23 18.3 59.23 17.2 58.13L3.48 44.41C2.38 43.31 2.38 41.56 3.48 40.46L15.77 28.17C20.46 23.49 24.74 22.25 29.66 20.61C29.66 20.61 29.66 20.61 29.66 20.61ZM56.27 21.42C55.53 21.42 54.93 22.03 54.93 22.76C54.93 23.5 55.53 24.1 56.27 24.1C57.01 24.1 57.61 23.5 57.61 22.76C57.61 22.03 57.01 21.42 56.27 21.42ZM60.29 26.78C59.55 26.78 58.95 27.39 58.95 28.12C58.95 28.86 59.55 29.46 60.29 29.46C61.03 29.46 61.63 28.86 61.63 28.12C61.63 27.39 61.03 26.78 60.29 26.78ZM53.59 29.46C52.85 29.46 52.25 30.07 52.25 30.8C52.25 31.54 52.85 32.14 53.59 32.14C54.33 32.14 54.93 31.54 54.93 30.8C54.93 30.07 54.33 29.46 53.59 29.46ZM28.13 30.8C26.65 30.8 25.45 32 25.45 33.48C25.45 34.97 26.65 36.16 28.13 36.16C29.61 36.16 30.81 34.97 30.81 33.48C30.81 32 29.61 30.8 28.13 30.8ZM17.82 31.56C17.46 31.57 17.13 31.71 16.88 31.96L8.45 40.4C7.92 40.92 7.92 41.78 8.45 42.3L19.31 53.17C19.84 53.68 20.69 53.68 21.21 53.17L29.65 44.72C30.17 44.2 30.17 43.35 29.65 42.83L18.78 31.96C18.53 31.7 18.18 31.56 17.82 31.56ZM17.83 34.8L26.81 43.78L20.26 50.32L11.29 41.35L17.83 34.8Z" fill="url(#paint_linear_51_978_0)" fill-opacity="1.000000" fill-rule="nonzero"/>
</svg>
