<svg width="67.151367" height="67.138672" viewBox="0 0 67.1514 67.1387" fill="none" xmlns="http://www.w3.org/2000/svg" xmlns:xlink="http://www.w3.org/1999/xlink">
	<desc>
			Created with Pixso.
	</desc>
	<defs>
		<linearGradient x1="33.575710" y1="0.000000" x2="33.575710" y2="67.138641" id="paint_linear_51_1185_0" gradientUnits="userSpaceOnUse">
			<stop stop-color="#FFC619"/>
			<stop offset="0.484375" stop-color="#F69020"/>
			<stop offset="1.000000" stop-color="#EA422A"/>
		</linearGradient>
	</defs>
	<path id="Vector" d="M59.07 0C57.29 0 55.51 0.67 54.17 2.01L51.51 4.67C51 5.18 50.94 5.99 51.38 6.58L48.28 9.68C41.96 16 36.68 17.92 31.38 19.69C26.09 21.46 20.68 23.07 15.13 28.63L1.73 42.02C-0.58 44.34 -0.58 48.14 1.73 50.46L9.2 57.93L16.67 65.39C19 67.71 22.79 67.71 25.11 65.39L38.5 52C44.06 46.45 45.67 41.04 47.44 35.75C49.2 30.45 51.12 25.17 57.45 18.85L60.55 15.75C61.14 16.19 61.95 16.13 62.46 15.62L65.12 12.96C67.81 10.27 67.81 5.85 65.12 3.15L63.98 2.01C62.62 0.67 60.85 -0.01 59.07 0ZM59.07 2.89C60.1 2.9 61.12 3.29 61.92 4.08L63.05 5.22C64.63 6.8 64.63 9.32 63.05 10.9L61.44 12.51L58.03 9.1C57.99 9.06 57.95 9.02 57.9 8.98L54.62 5.7L56.23 4.08C57.02 3.29 58.04 2.89 59.07 2.89ZM33.57 2.9C32.76 2.9 32.11 3.56 32.11 4.36C32.11 5.17 32.76 5.82 33.57 5.82C34.37 5.82 35.03 5.17 35.03 4.36C35.03 3.56 34.37 2.9 33.57 2.9ZM42.33 7.28C41.52 7.28 40.87 7.94 40.87 8.74C40.87 9.55 41.52 10.2 42.33 10.2C43.13 10.2 43.79 9.55 43.79 8.74C43.79 7.94 43.13 7.28 42.33 7.28ZM53.44 8.65L58.48 13.69L55.38 16.79C53.19 18.98 51.51 21.09 50.13 23.13L44 17C46.04 15.62 48.15 13.94 50.35 11.75L53.44 8.65ZM41.45 18.58L48.55 25.68C47.31 27.89 46.39 30.02 45.64 32.06L37.72 29.41L35.07 21.49C37.11 20.74 39.24 19.82 41.45 18.58ZM32.32 22.45L35.18 31.03C35.32 31.46 35.67 31.81 36.1 31.95L44.68 34.81C44.67 34.81 44.67 34.82 44.67 34.82C42.89 40.18 41.54 44.84 36.44 49.94L23.05 63.33C21.85 64.53 19.94 64.53 18.74 63.33L3.8 48.39C2.6 47.19 2.6 45.28 3.8 44.08L17.19 30.69C22.29 25.59 26.95 24.24 32.31 22.46C32.31 22.46 32.32 22.46 32.32 22.45ZM61.31 23.34C60.5 23.34 59.85 24 59.85 24.8C59.85 25.61 60.5 26.26 61.31 26.26C62.11 26.26 62.77 25.61 62.77 24.8C62.77 24 62.11 23.34 61.31 23.34ZM65.69 29.18C64.88 29.18 64.23 29.84 64.23 30.64C64.23 31.45 64.88 32.1 65.69 32.1C66.49 32.1 67.15 31.45 67.15 30.64C67.15 29.84 66.49 29.18 65.69 29.18ZM58.39 32.1C57.58 32.1 56.93 32.76 56.93 33.56C56.93 34.37 57.58 35.02 58.39 35.02C59.19 35.02 59.85 34.37 59.85 33.56C59.85 32.76 59.19 32.1 58.39 32.1ZM30.65 33.56C29.03 33.56 27.73 34.87 27.73 36.48C27.73 38.1 29.03 39.4 30.65 39.4C32.26 39.4 33.57 38.1 33.57 36.48C33.57 34.87 32.26 33.56 30.65 33.56ZM19.41 34.39C19.03 34.4 18.67 34.55 18.4 34.82L9.2 44.02C8.63 44.59 8.63 45.52 9.2 46.09L21.04 57.93C21.61 58.49 22.54 58.49 23.11 57.93L32.31 48.73C32.88 48.16 32.88 47.23 32.31 46.66L20.47 34.82C20.19 34.54 19.8 34.39 19.41 34.39ZM19.43 37.92L29.21 47.7L22.07 54.82L12.3 45.06L19.43 37.92Z" fill="url(#paint_linear_51_1185_0)" fill-opacity="1.000000" fill-rule="nonzero"/>
</svg>
