<svg width="28.000000" height="28.000000" viewBox="0 0 28 28" fill="none" xmlns="http://www.w3.org/2000/svg" xmlns:xlink="http://www.w3.org/1999/xlink">
	<desc>
			Created with Pixso.
	</desc>
	<defs>
		<clipPath id="clip51_1409">
			<rect id="icons8_calendar_1 1" rx="0.000000" width="27.000000" height="27.000000" transform="translate(0.500000 0.500000)" fill="white" fill-opacity="0"/>
		</clipPath>
	</defs>
	<rect id="icons8_calendar_1 1" rx="0.000000" width="27.000000" height="27.000000" transform="translate(0.500000 0.500000)" fill="#FFFFFF" fill-opacity="0"/>
	<g clip-path="url(#clip51_1409)">
		<path id="Vector" d="M6.72 0C6.42 0 6.12 0.1 5.91 0.31C5.7 0.52 5.6 0.82 5.6 1.12L5.6 2.24L2.24 2.24C1.94 2.24 1.64 2.34 1.43 2.55C1.22 2.76 1.12 3.06 1.12 3.35L1.12 7.83L1.12 25.75C1.12 26.05 1.22 26.35 1.43 26.56C1.64 26.77 1.94 26.87 2.24 26.87L25.76 26.87C26.05 26.87 26.35 26.77 26.56 26.56C26.77 26.35 26.88 26.05 26.88 25.75L26.88 7.83L26.88 3.35C26.88 3.06 26.77 2.76 26.56 2.55C26.35 2.34 26.05 2.24 25.76 2.24L22.4 2.24L22.4 1.12C22.4 0.82 22.29 0.52 22.08 0.31C21.87 0.1 21.57 0 21.28 0L20.16 0C19.86 0 19.56 0.1 19.35 0.31C19.14 0.52 19.04 0.82 19.04 1.12L19.04 2.24L8.96 2.24L8.96 1.12C8.96 0.82 8.85 0.52 8.64 0.31C8.43 0.1 8.13 0 7.84 0L6.72 0ZM6.72 1.12L7.84 1.12L7.84 4.47L6.72 4.47L6.72 1.12ZM20.16 1.12L21.28 1.12L21.28 2.7C21.27 2.76 21.27 2.82 21.28 2.88L21.28 4.47L20.16 4.47L20.16 1.12ZM2.24 3.35L5.6 3.35L5.6 4.47C5.6 4.77 5.7 5.07 5.91 5.28C6.12 5.49 6.42 5.6 6.72 5.6L7.84 5.6C8.13 5.6 8.43 5.49 8.64 5.28C8.85 5.07 8.96 4.77 8.96 4.47L8.96 3.35L19.04 3.35L19.04 4.47C19.04 4.77 19.14 5.07 19.35 5.28C19.56 5.49 19.86 5.6 20.16 5.6L21.28 5.6C21.57 5.6 21.87 5.49 22.08 5.28C22.29 5.07 22.4 4.77 22.4 4.47L22.4 3.35L25.76 3.35L25.76 7.27L2.24 7.27L2.24 3.35ZM2.24 8.39L25.76 8.39L25.76 25.75L2.24 25.75L2.24 8.39ZM10.07 10.63C10.04 10.63 10.01 10.63 9.99 10.64L6.16 10.64C6.01 10.64 5.86 10.69 5.76 10.8C5.65 10.9 5.6 11.05 5.6 11.2L5.6 15.02C5.59 15.08 5.59 15.14 5.6 15.2L5.6 18.94C5.59 19 5.59 19.06 5.6 19.12L5.6 22.96C5.6 23.1 5.65 23.25 5.76 23.35C5.86 23.46 6.01 23.52 6.16 23.52L9.98 23.52C10.04 23.52 10.1 23.52 10.16 23.52L13.9 23.52C13.96 23.52 14.02 23.52 14.08 23.52L16.79 23.52L17.82 23.52C17.88 23.52 17.94 23.52 18 23.52L21.84 23.52C21.98 23.52 22.13 23.46 22.23 23.35C22.34 23.25 22.4 23.1 22.4 22.96L22.4 19.13C22.41 19.07 22.41 19.01 22.4 18.95L22.4 15.21C22.41 15.15 22.41 15.09 22.4 15.03L22.4 11.2C22.4 11.05 22.34 10.9 22.23 10.8C22.13 10.69 21.98 10.64 21.84 10.64L18.01 10.64C17.95 10.62 17.89 10.62 17.83 10.64L14.09 10.64C14.03 10.62 13.97 10.62 13.91 10.64L10.17 10.64C10.14 10.63 10.1 10.63 10.07 10.63ZM6.72 11.75L9.52 11.75L9.52 14.56L6.72 14.56L6.72 11.75ZM10.64 11.75L13.44 11.75L13.44 14.56L10.64 14.56L10.64 11.75ZM14.56 11.75L17.36 11.75L17.36 14.56L14.56 14.56L14.56 11.75ZM18.48 11.75L21.28 11.75L21.28 14.56L18.48 14.56L18.48 11.75ZM6.72 15.68L9.52 15.68L9.52 18.48L6.72 18.48L6.72 15.68ZM10.64 15.68L13.44 15.68L13.44 18.48L10.64 18.48L10.64 15.68ZM14.56 15.68L17.36 15.68L17.36 18.48L14.56 18.48L14.56 15.68ZM18.48 15.68L21.28 15.68L21.28 18.48L18.48 18.48L18.48 15.68ZM6.72 19.6L9.52 19.6L9.52 22.39L6.72 22.39L6.72 19.6ZM10.64 19.6L13.44 19.6L13.44 22.39L10.64 22.39L10.64 19.6ZM14.56 19.6L17.36 19.6L17.36 22.39L16.79 22.39L14.56 22.39L14.56 19.6ZM18.48 19.6L21.28 19.6L21.28 22.39L18.48 22.39L18.48 19.6Z" fill="#606571" fill-opacity="1.000000" fill-rule="nonzero"/>
	</g>
</svg>
