<svg width="32.009033" height="32.000000" viewBox="0 0 32.009 32" fill="none" xmlns="http://www.w3.org/2000/svg" xmlns:xlink="http://www.w3.org/1999/xlink">
	<desc>
			Created with Pixso.
	</desc>
	<defs>
		<linearGradient x1="16.004559" y1="0.000000" x2="16.004559" y2="32.000000" id="paint_linear_51_1221_0" gradientUnits="userSpaceOnUse">
			<stop stop-color="#FFC619"/>
			<stop offset="0.468750" stop-color="#F69020"/>
			<stop offset="1.000000" stop-color="#EA422A"/>
		</linearGradient>
	</defs>
	<path id="Vector" d="M8.32 0C7.27 0 6.4 0.86 6.4 1.91L6.4 14.08L7.68 14.08L7.68 1.91C7.68 1.55 7.96 1.28 8.32 1.28L30.08 1.28C30.44 1.28 30.72 1.55 30.72 1.91L30.72 30.08C30.72 30.44 30.44 30.72 30.08 30.72L8.32 30.72C7.96 30.72 7.68 30.44 7.68 30.08L7.68 17.91L6.4 17.91L6.4 30.08C6.4 31.13 7.27 32 8.32 32L30.08 32C31.14 32 32 31.13 32 30.08L32 1.91C32 0.86 31.14 0 30.08 0L8.32 0ZM14.11 8.38C13.98 8.38 13.86 8.42 13.75 8.49C13.65 8.56 13.57 8.66 13.52 8.78C13.47 8.9 13.46 9.03 13.49 9.15C13.51 9.27 13.58 9.39 13.67 9.48L19.54 15.36L0.64 15.36C0.56 15.35 0.48 15.37 0.4 15.4C0.32 15.43 0.25 15.48 0.19 15.54C0.13 15.6 0.08 15.67 0.04 15.75C0.01 15.83 0 15.91 0 16C0 16.08 0.01 16.16 0.04 16.24C0.08 16.32 0.13 16.39 0.19 16.45C0.25 16.51 0.32 16.56 0.4 16.59C0.48 16.62 0.56 16.64 0.64 16.63L19.54 16.63L13.67 22.51C13.6 22.57 13.55 22.64 13.52 22.72C13.49 22.8 13.47 22.88 13.47 22.97C13.47 23.05 13.48 23.14 13.52 23.22C13.55 23.3 13.6 23.37 13.66 23.43C13.72 23.49 13.79 23.53 13.87 23.57C13.95 23.6 14.03 23.62 14.12 23.61C14.2 23.61 14.28 23.6 14.36 23.56C14.44 23.53 14.51 23.48 14.57 23.42L21.99 16L14.57 8.57C14.51 8.51 14.44 8.46 14.36 8.43C14.28 8.4 14.2 8.38 14.11 8.38Z" fill="url(#paint_linear_51_1221_0)" fill-opacity="1.000000" fill-rule="nonzero"/>
</svg>
