<svg width="80.000000" height="76.800049" viewBox="0 0 80 76.8" fill="none" xmlns="http://www.w3.org/2000/svg" xmlns:xlink="http://www.w3.org/1999/xlink">
	<desc>
			Created with Pixso.
	</desc>
	<defs>
		<linearGradient x1="40.000000" y1="0.000000" x2="40.000000" y2="76.800003" id="paint_linear_51_1129_0" gradientUnits="userSpaceOnUse">
			<stop stop-color="#FFC619"/>
			<stop offset="0.489583" stop-color="#F69020"/>
			<stop offset="1.000000" stop-color="#EA422A"/>
		</linearGradient>
	</defs>
	<path id="Vector" d="M40 0C34.45 0 31.01 1.23 30.1 1.59C29.93 1.64 29.78 1.71 29.64 1.8C29.63 1.8 29.61 1.8 29.6 1.8C29.56 1.81 29.53 1.83 29.5 1.84C29.48 1.86 29.46 1.88 29.45 1.9C29.41 1.91 29.38 1.93 29.35 1.94C29.33 1.96 29.31 1.98 29.3 2C29.24 2.04 29.19 2.09 29.14 2.15C29.13 2.18 29.11 2.21 29.1 2.25C29.08 2.26 29.06 2.28 29.05 2.3C29.03 2.33 29.01 2.36 29 2.4L26.14 6.59L18.85 8.94C18.75 8.97 18.64 9 18.54 9.05C17.13 9.51 15.45 10.56 13.6 12.45C11.57 14.51 9.44 17.51 7.89 21.7C6.69 24.93 4.76 30.01 3.1 34.65C2.26 36.96 1.5 39.13 0.94 41C0.39 42.86 0 44.26 0 45.5L0 68.8C0 69.68 0.71 70.4 1.6 70.4L12.8 70.4C13.68 70.4 14.39 69.68 14.39 68.8L14.39 46.45C14.39 46.45 14.39 46.45 14.39 46.4C14.41 46.32 14.45 46.13 14.55 45.9C14.7 45.51 14.95 45.02 15.25 44.45C15.83 43.29 16.64 41.85 17.45 40.5C17.52 40.36 17.52 40.38 17.6 40.25L17.6 75.19C17.6 76.08 18.31 76.8 19.2 76.8L60.8 76.8C61.68 76.8 62.39 76.08 62.39 75.19L62.3 43.35L62.3 43.3L62.35 40.15C62.45 40.32 62.44 40.31 62.55 40.5C63.35 41.85 64.16 43.29 64.75 44.45C65.04 45.02 65.3 45.51 65.44 45.9C65.56 46.18 65.59 46.42 65.6 46.45L65.6 68.8C65.6 69.68 66.31 70.4 67.19 70.4L78.39 70.4C79.28 70.4 80 69.68 80 68.8L80 45.5C80 44.26 79.6 42.86 79.05 41C78.49 39.13 77.73 36.96 76.89 34.65C75.23 30.01 73.3 24.93 72.1 21.7C70.55 17.51 68.42 14.51 66.39 12.45C64.52 10.54 62.83 9.5 61.39 9.05C61.31 9.01 61.23 8.97 61.14 8.94L53.85 6.59L51.05 2.44C51.01 2.4 50.98 2.34 50.95 2.3C50.91 2.26 50.88 2.23 50.85 2.19C50.85 2.18 50.85 2.16 50.85 2.15C50.7 1.98 50.51 1.84 50.3 1.75C50.3 1.75 50.25 1.69 50.25 1.69C50.15 1.65 50.05 1.62 49.95 1.59C49.11 1.26 45.65 0 40 0ZM40 3.19C43.88 3.19 46.35 3.76 47.7 4.19C47.46 5.01 47.1 6.06 46.45 7.19C45.22 9.31 43.4 11.2 40 11.2C36.59 11.2 34.77 9.31 33.55 7.19C32.89 6.06 32.53 5.01 32.3 4.19C33.64 3.76 36.11 3.19 40 3.19ZM29.95 6.8C30.21 7.46 30.38 8.07 30.8 8.8C31.78 10.49 33.32 12.31 35.5 13.4L31.25 17.65L28.95 8.34L29.95 6.8ZM50.05 6.8L51.05 8.34L48.75 17.65L44.5 13.4C46.67 12.31 48.21 10.49 49.2 8.8C49.61 8.07 49.78 7.46 50.05 6.8ZM26.05 10.05L28.85 21.2C28.98 21.76 29.41 22.21 29.98 22.37C30.53 22.52 31.14 22.36 31.55 21.95L39.2 14.3C39.46 14.31 39.71 14.4 40 14.4C40.28 14.4 40.53 14.31 40.8 14.3L48.45 21.95C48.85 22.36 49.46 22.52 50.01 22.37C50.58 22.21 51.01 21.76 51.14 21.2L53.95 10.05L58.89 11.6C58.68 12.61 58.19 14.81 57.85 19.04C57.47 23.68 57.52 29.34 58.95 34.3C58.96 34.34 58.98 34.4 59 34.45C59 34.46 58.99 34.48 59 34.5C59.02 34.65 59.07 34.8 59.14 34.95C59.17 35.03 59.17 35.11 59.2 35.2L59.1 43.3L59.2 73.6L20.8 73.6L20.8 35.4C23.09 31.06 23.01 25.06 22.5 19.9C22.04 15.33 21.39 12.68 21.14 11.6L26.05 10.05ZM18.2 12.85C18.56 14.52 19.02 16.93 19.35 20.2C19.78 24.6 19.68 29.68 18.5 32.95C18.28 33.1 18.11 33.31 18 33.55C18 33.55 16.35 36.11 14.7 38.9C13.87 40.29 13.03 41.73 12.39 43C12.08 43.63 11.8 44.21 11.6 44.75C11.39 45.28 11.2 45.7 11.2 46.4L11.2 67.19L3.19 67.19L3.19 45.5C3.19 45.18 3.46 43.71 4 41.95C4.53 40.18 5.28 37.98 6.1 35.7C7.74 31.12 9.68 26.13 10.89 22.85C12.3 19.08 14.19 16.43 15.89 14.7C16.71 13.87 17.53 13.29 18.2 12.85ZM61.85 12.85C62.5 13.28 63.3 13.88 64.1 14.7C65.8 16.43 67.69 19.08 69.1 22.85C70.31 26.13 72.25 31.12 73.89 35.7C74.71 37.98 75.46 40.18 76 41.95C76.53 43.71 76.8 45.18 76.8 45.5L76.8 67.19L68.8 67.19L68.8 46.4C68.8 45.7 68.6 45.28 68.39 44.75C68.19 44.21 67.91 43.63 67.6 43C66.96 41.73 66.12 40.29 65.3 38.9C63.64 36.11 62 33.55 62 33.55C61.95 33.46 61.9 33.38 61.85 33.3C60.66 29.01 60.69 23.68 61.05 19.29C61.28 16.48 61.58 14.37 61.85 12.85Z" fill="url(#paint_linear_51_1129_0)" fill-opacity="1.000000" fill-rule="nonzero"/>
</svg>
