<svg width="73.263672" height="73.004395" viewBox="0 0 73.2637 73.0044" fill="none" xmlns="http://www.w3.org/2000/svg" xmlns:xlink="http://www.w3.org/1999/xlink">
	<desc>
			Created with Pixso.
	</desc>
	<defs>
		<linearGradient x1="36.631851" y1="0.000000" x2="36.631851" y2="73.004333" id="paint_linear_51_1155_0" gradientUnits="userSpaceOnUse">
			<stop stop-color="#FFC619"/>
			<stop offset="0.489583" stop-color="#F69020"/>
			<stop offset="1.000000" stop-color="#EA422A"/>
		</linearGradient>
	</defs>
	<path id="Vector" d="M68.78 0C66.62 -0.09 64.59 1.34 64.03 3.5L61.83 12.05L55.83 20.7L46.28 22.85C44.66 23.22 43.18 24.06 42.08 25.3L35.48 32.65C34.64 33.58 34 34.74 33.68 35.95L31.43 44.45C30.82 46.73 32.15 49.12 34.43 49.75C36.68 50.37 39.05 49.04 39.73 46.8L41.98 39.35L45.53 35.8C45.5 36.76 45.73 37.4 45.53 38.4C45.09 40.56 44.43 42.35 44.43 42.35L38.23 54.3C37.89 54.95 37.63 55.64 37.48 56.35L35.23 67.2C34.61 70.14 36.88 73 39.88 73L40.38 73C42.64 73 44.63 71.36 45.08 69.15L47.18 58.8L52.53 49.2L56.88 54.85L58.43 68.75C58.7 71.16 60.76 73 63.18 73C65.98 73 68.22 70.49 67.93 67.7L66.43 52.9C66.33 52 66.07 51.12 65.68 50.3L61.13 40.7C61.47 39.75 63.18 34.64 62.58 28.9L70.08 16.25C70.14 16.14 70.19 16.02 70.23 15.9L73.08 5.95C73.8 3.42 72.28 0.79 69.73 0.15C69.42 0.07 69.08 0.01 68.78 0ZM27.48 0.5C26.89 0.51 26.29 0.64 25.73 0.9C23.62 1.87 22.62 4.34 23.48 6.5L26.28 13.6L21.73 21.7L14.08 22.75L9.28 17.25L9.53 15.05C9.82 18.75 12.91 21.7 16.68 21.7C20.63 21.7 23.88 18.46 23.88 14.5C23.88 10.54 20.63 7.3 16.68 7.3C13.49 7.3 10.77 9.41 9.83 12.3L10.28 8.55C10.57 6.05 8.64 3.78 6.13 3.65L5.78 3.65C3.47 3.53 1.42 5.24 1.18 7.55L0.03 18.3C-0.13 19.81 0.31 21.29 1.23 22.5L8.98 32.75L6.18 38.95C5.04 41.46 4.59 44.21 4.88 46.95L7.13 68.45C7.39 70.95 9.52 72.9 12.03 72.9C14.89 72.9 17.17 70.41 16.93 67.55L15.33 48.3L15.53 48.15L20.53 55.15L17.98 67.1C17.34 70.06 19.65 72.9 22.68 72.9C24.85 72.9 26.73 71.41 27.28 69.3L30.68 56.25C31.08 54.7 30.88 53.07 30.13 51.65L24.78 41.5L27.33 30.1L35.03 17.2C35.86 15.81 36.03 14.11 35.43 12.6L31.63 3.25C31.17 2.09 30.26 1.22 29.18 0.8C28.64 0.59 28.07 0.49 27.48 0.5ZM68.33 3.2C68.52 3.17 68.73 3.2 68.93 3.25C69.76 3.46 70.22 4.27 69.98 5.1L67.13 15L59.63 27.65C59.43 27.96 59.33 28.33 59.38 28.7C60.13 34.05 57.93 40.3 57.93 40.3C57.77 40.71 57.79 41.16 57.98 41.55L62.78 51.65C63.01 52.14 63.17 52.71 63.23 53.25L64.73 68.05C64.83 69.01 64.14 69.8 63.18 69.8C62.36 69.8 61.72 69.21 61.63 68.4L59.98 54C59.95 53.71 59.85 53.44 59.68 53.2L53.63 45.35C53.31 44.91 52.78 44.65 52.23 44.68C51.69 44.71 51.2 45.02 50.93 45.5L44.28 57.4C44.2 57.54 44.15 57.69 44.13 57.85L41.93 68.5C41.78 69.24 41.13 69.8 40.38 69.8L39.88 69.8C38.84 69.8 38.12 68.92 38.33 67.9L40.63 57C40.72 56.57 40.88 56.13 41.08 55.75L47.38 43.6C47.42 43.54 47.45 43.47 47.48 43.4C47.48 43.4 48.19 41.46 48.68 39.05C49.17 36.64 49.63 33.83 48.48 31.45C48.25 30.99 47.82 30.66 47.32 30.57C46.82 30.49 46.3 30.64 45.93 31L39.48 37.3C39.28 37.49 39.15 37.74 39.08 38L36.68 45.9C36.5 46.51 35.88 46.82 35.28 46.65C34.67 46.48 34.36 45.87 34.53 45.25L36.78 36.75C36.97 36.02 37.32 35.36 37.83 34.8L44.48 27.45C44.48 27.43 44.48 27.42 44.48 27.4C45.13 26.66 46.01 26.17 46.98 25.95L57.13 23.65C57.53 23.57 57.89 23.34 58.13 23L64.63 13.6C64.75 13.43 64.83 13.25 64.88 13.05L67.13 4.3C67.28 3.69 67.76 3.28 68.33 3.2ZM27.58 3.7C28.05 3.69 28.48 3.96 28.68 4.45L32.43 13.8C32.66 14.38 32.6 15.01 32.28 15.55L24.43 28.7C24.34 28.84 24.27 28.99 24.23 29.15L21.48 41.35C21.4 41.72 21.45 42.11 21.63 42.45L27.33 53.15C27.7 53.86 27.78 54.67 27.58 55.45L24.18 68.5C23.99 69.21 23.42 69.7 22.68 69.7C21.62 69.7 20.85 68.78 21.08 67.75L23.83 55.15C23.92 54.72 23.83 54.26 23.58 53.9L17.18 44.95C16.93 44.6 16.55 44.37 16.13 44.31C15.7 44.24 15.27 44.34 14.93 44.6L12.68 46.35C12.25 46.69 12.03 47.21 12.08 47.75L13.78 67.8C13.87 68.84 13.07 69.7 12.03 69.7C11.13 69.7 10.37 69.05 10.28 68.15L8.08 46.6C7.85 44.42 8.17 42.24 9.08 40.25L12.28 33.2C12.52 32.68 12.46 32.07 12.13 31.6L3.78 20.6C3.35 20.04 3.15 19.3 3.23 18.6L4.38 7.9C4.45 7.26 4.93 6.82 5.58 6.85L5.98 6.85C6.69 6.89 7.16 7.49 7.08 8.2L5.98 17.55C5.93 18.01 6.07 18.46 6.38 18.8L12.28 25.5C12.63 25.92 13.18 26.13 13.73 26.05L22.98 24.75C23.47 24.67 23.89 24.38 24.13 23.95L29.48 14.45C29.71 14.04 29.75 13.54 29.58 13.1L26.48 5.3C26.23 4.69 26.49 4.07 27.08 3.8C27.23 3.72 27.42 3.71 27.58 3.7ZM48.68 7.3C44.72 7.3 41.48 10.54 41.48 14.5C41.48 18.46 44.72 21.7 48.68 21.7C52.63 21.7 55.88 18.46 55.88 14.5C55.88 10.54 52.63 7.3 48.68 7.3ZM16.68 10.5C18.9 10.5 20.68 12.27 20.68 14.5C20.68 16.72 18.9 18.5 16.68 18.5C14.45 18.5 12.68 16.72 12.68 14.5C12.68 12.27 14.45 10.5 16.68 10.5ZM48.68 10.5C50.9 10.5 52.68 12.27 52.68 14.5C52.68 16.72 50.9 18.5 48.68 18.5C46.45 18.5 44.68 16.72 44.68 14.5C44.68 12.27 46.45 10.5 48.68 10.5Z" fill="url(#paint_linear_51_1155_0)" fill-opacity="1.000000" fill-rule="nonzero"/>
</svg>
