<svg width="25.760010" height="26.879883" viewBox="0 0 25.76 26.8799" fill="none" xmlns="http://www.w3.org/2000/svg" xmlns:xlink="http://www.w3.org/1999/xlink">
	<desc>
			Created with Pixso.
	</desc>
	<defs/>
	<path id="Vector" d="M5.6 0C5.3 0 5 0.1 4.79 0.31C4.58 0.52 4.47 0.82 4.47 1.12L4.47 2.24L1.12 2.24C0.82 2.24 0.52 2.34 0.31 2.55C0.1 2.76 0 3.06 0 3.35L0 7.83L0 25.75C0 26.05 0.1 26.35 0.31 26.56C0.52 26.77 0.82 26.87 1.12 26.87L24.63 26.87C24.93 26.87 25.23 26.77 25.44 26.56C25.65 26.35 25.76 26.05 25.76 25.75L25.76 7.83L25.76 3.35C25.76 3.06 25.65 2.76 25.44 2.55C25.23 2.34 24.93 2.24 24.63 2.24L21.28 2.24L21.28 1.12C21.28 0.82 21.17 0.52 20.96 0.31C20.75 0.1 20.45 0 20.15 0L19.04 0C18.74 0 18.44 0.1 18.23 0.31C18.02 0.52 17.91 0.82 17.91 1.12L17.91 2.24L7.84 2.24L7.84 1.12C7.84 0.82 7.73 0.52 7.52 0.31C7.31 0.1 7.01 0 6.71 0L5.6 0ZM5.6 1.12L6.71 1.12L6.71 4.47L5.6 4.47L5.6 1.12ZM19.04 1.12L20.15 1.12L20.15 2.7C20.14 2.76 20.14 2.82 20.15 2.88L20.15 4.47L19.04 4.47L19.04 1.12ZM1.12 3.35L4.47 3.35L4.47 4.47C4.47 4.77 4.58 5.07 4.79 5.28C5 5.49 5.3 5.6 5.6 5.6L6.71 5.6C7.01 5.6 7.31 5.49 7.52 5.28C7.73 5.07 7.84 4.77 7.84 4.47L7.84 3.35L17.91 3.35L17.91 4.47C17.91 4.77 18.02 5.07 18.23 5.28C18.44 5.49 18.74 5.6 19.04 5.6L20.15 5.6C20.45 5.6 20.75 5.49 20.96 5.28C21.17 5.07 21.28 4.77 21.28 4.47L21.28 3.35L24.63 3.35L24.63 7.27L1.12 7.27L1.12 3.35ZM1.12 8.39L24.63 8.39L24.63 25.75L1.12 25.75L1.12 8.39ZM8.95 10.63C8.92 10.63 8.89 10.63 8.87 10.64L5.04 10.64C4.89 10.64 4.74 10.69 4.64 10.8C4.53 10.9 4.47 11.05 4.47 11.2L4.47 15.02C4.46 15.08 4.46 15.14 4.47 15.2L4.47 18.94C4.46 19 4.46 19.06 4.47 19.12L4.47 22.96C4.47 23.1 4.53 23.25 4.64 23.35C4.74 23.46 4.89 23.52 5.04 23.52L8.86 23.52C8.92 23.52 8.98 23.52 9.04 23.52L12.78 23.52C12.84 23.52 12.9 23.52 12.96 23.52L15.67 23.52L16.7 23.52C16.76 23.52 16.82 23.52 16.88 23.52L20.72 23.52C20.86 23.52 21.01 23.46 21.11 23.35C21.22 23.25 21.28 23.1 21.28 22.96L21.28 19.13C21.29 19.07 21.29 19.01 21.28 18.95L21.28 15.21C21.29 15.15 21.29 15.09 21.28 15.03L21.28 11.2C21.28 11.05 21.22 10.9 21.11 10.8C21.01 10.69 20.86 10.64 20.72 10.64L16.89 10.64C16.83 10.62 16.77 10.62 16.71 10.64L12.97 10.64C12.91 10.62 12.85 10.62 12.79 10.64L9.05 10.64C9.02 10.63 8.98 10.63 8.95 10.63ZM5.6 11.75L8.39 11.75L8.39 14.56L5.6 14.56L5.6 11.75ZM9.52 11.75L12.32 11.75L12.32 14.56L9.52 14.56L9.52 11.75ZM13.43 11.75L16.24 11.75L16.24 14.56L13.43 14.56L13.43 11.75ZM17.36 11.75L20.15 11.75L20.15 14.56L17.36 14.56L17.36 11.75ZM5.6 15.68L8.39 15.68L8.39 18.48L5.6 18.48L5.6 15.68ZM9.52 15.68L12.32 15.68L12.32 18.48L9.52 18.48L9.52 15.68ZM13.43 15.68L16.24 15.68L16.24 18.48L13.43 18.48L13.43 15.68ZM17.36 15.68L20.15 15.68L20.15 18.48L17.36 18.48L17.36 15.68ZM5.6 19.6L8.39 19.6L8.39 22.39L5.6 22.39L5.6 19.6ZM9.52 19.6L12.32 19.6L12.32 22.39L9.52 22.39L9.52 19.6ZM13.43 19.6L16.24 19.6L16.24 22.39L15.67 22.39L13.43 22.39L13.43 19.6ZM17.36 19.6L20.15 19.6L20.15 22.39L17.36 22.39L17.36 19.6Z" fill="#606571" fill-opacity="1.000000" fill-rule="nonzero"/>
</svg>
