<svg width="34.959961" height="36.479980" viewBox="0 0 34.96 36.48" fill="none" xmlns="http://www.w3.org/2000/svg" xmlns:xlink="http://www.w3.org/1999/xlink">
	<desc>
			Created with Pixso.
	</desc>
	<defs>
		<linearGradient x1="17.480000" y1="0.000000" x2="17.480000" y2="36.480000" id="paint_linear_51_1278_0" gradientUnits="userSpaceOnUse">
			<stop stop-color="#FFC619"/>
			<stop offset="0.473958" stop-color="#F69020"/>
			<stop offset="1.000000" stop-color="#EA422A"/>
		</linearGradient>
	</defs>
	<path id="Vector" d="M7.6 0C7.2 0 6.79 0.14 6.51 0.43C6.22 0.71 6.08 1.12 6.08 1.52L6.08 3.04L1.52 3.04C1.12 3.04 0.71 3.18 0.43 3.47C0.14 3.75 0 4.16 0 4.56L0 10.63L0 34.96C0 35.35 0.14 35.76 0.43 36.04C0.71 36.33 1.12 36.48 1.52 36.48L33.43 36.48C33.83 36.48 34.24 36.33 34.52 36.04C34.81 35.76 34.96 35.35 34.96 34.96L34.96 10.63L34.96 4.56C34.96 4.16 34.81 3.75 34.52 3.47C34.24 3.18 33.83 3.04 33.43 3.04L28.87 3.04L28.87 1.52C28.87 1.12 28.73 0.71 28.44 0.43C28.16 0.14 27.75 0 27.35 0L25.83 0C25.44 0 25.03 0.14 24.75 0.43C24.46 0.71 24.31 1.12 24.31 1.52L24.31 3.04L10.64 3.04L10.64 1.52C10.64 1.12 10.49 0.71 10.2 0.43C9.92 0.14 9.51 0 9.12 0L7.6 0ZM7.6 1.52L9.12 1.52L9.12 6.08L7.6 6.08L7.6 1.52ZM25.83 1.52L27.35 1.52L27.35 3.67C27.34 3.75 27.34 3.83 27.35 3.92L27.35 6.08L25.83 6.08L25.83 1.52ZM1.52 4.56L6.08 4.56L6.08 6.08C6.08 6.47 6.22 6.88 6.51 7.16C6.79 7.45 7.2 7.6 7.6 7.6L9.12 7.6C9.51 7.6 9.92 7.45 10.2 7.16C10.49 6.88 10.64 6.47 10.64 6.08L10.64 4.56L24.31 4.56L24.31 6.08C24.31 6.47 24.46 6.88 24.75 7.16C25.03 7.45 25.44 7.6 25.83 7.6L27.35 7.6C27.75 7.6 28.16 7.45 28.44 7.16C28.73 6.88 28.87 6.47 28.87 6.08L28.87 4.56L33.43 4.56L33.43 9.87L1.52 9.87L1.52 4.56ZM1.52 11.39L33.43 11.39L33.43 34.96L1.52 34.96L1.52 11.39ZM12.14 14.42C12.11 14.43 12.07 14.43 12.03 14.43L6.83 14.43C6.63 14.43 6.44 14.52 6.3 14.66C6.16 14.8 6.08 14.99 6.08 15.2L6.08 20.39C6.06 20.47 6.06 20.55 6.08 20.64L6.08 25.71C6.06 25.79 6.06 25.87 6.08 25.96L6.08 31.15C6.08 31.36 6.16 31.55 6.3 31.69C6.44 31.83 6.63 31.91 6.83 31.91L12.03 31.91C12.11 31.93 12.19 31.93 12.28 31.91L17.35 31.91C17.43 31.93 17.51 31.93 17.6 31.91L21.27 31.91L22.67 31.91C22.75 31.93 22.83 31.93 22.92 31.91L28.12 31.91C28.32 31.91 28.51 31.83 28.65 31.69C28.79 31.55 28.87 31.36 28.87 31.15L28.87 25.96C28.89 25.88 28.89 25.8 28.87 25.71L28.87 20.64C28.89 20.56 28.89 20.48 28.87 20.39L28.87 15.2C28.87 14.99 28.79 14.8 28.65 14.66C28.51 14.52 28.32 14.43 28.12 14.43L22.92 14.43C22.84 14.42 22.76 14.42 22.67 14.43L17.6 14.43C17.52 14.42 17.44 14.42 17.35 14.43L12.28 14.43C12.24 14.43 12.19 14.42 12.14 14.42ZM7.6 15.96L11.39 15.96L11.39 19.76L7.6 19.76L7.6 15.96ZM12.91 15.96L16.72 15.96L16.72 19.76L12.91 19.76L12.91 15.96ZM18.24 15.96L22.04 15.96L22.04 19.76L18.24 19.76L18.24 15.96ZM23.56 15.96L27.35 15.96L27.35 19.76L23.56 19.76L23.56 15.96ZM7.6 21.28L11.39 21.28L11.39 25.08L7.6 25.08L7.6 21.28ZM12.91 21.28L16.72 21.28L16.72 25.08L12.91 25.08L12.91 21.28ZM18.24 21.28L22.04 21.28L22.04 25.08L18.24 25.08L18.24 21.28ZM23.56 21.28L27.35 21.28L27.35 25.08L23.56 25.08L23.56 21.28ZM7.6 26.6L11.39 26.6L11.39 30.39L7.6 30.39L7.6 26.6ZM12.91 26.6L16.72 26.6L16.72 30.39L12.91 30.39L12.91 26.6ZM18.24 26.6L22.04 26.6L22.04 30.39L21.27 30.39L18.24 30.39L18.24 26.6ZM23.56 26.6L27.35 26.6L27.35 30.39L23.56 30.39L23.56 26.6Z" fill="url(#paint_linear_51_1278_0)" fill-opacity="1.000000" fill-rule="nonzero"/>
</svg>
