<svg width="79.099854" height="79.099854" viewBox="0 0 79.0999 79.0999" fill="none" xmlns="http://www.w3.org/2000/svg" xmlns:xlink="http://www.w3.org/1999/xlink">
	<desc>
			Created with Pixso.
	</desc>
	<defs>
		<linearGradient x1="39.549919" y1="0.000000" x2="39.549919" y2="79.099838" id="paint_linear_51_1145_0" gradientUnits="userSpaceOnUse">
			<stop stop-color="#FFC619"/>
			<stop offset="0.500000" stop-color="#F69020"/>
			<stop offset="1.000000" stop-color="#EA422A"/>
		</linearGradient>
	</defs>
	<path id="Vector" d="M39.54 0C17.72 0 0 17.72 0 39.54C0 61.37 17.72 79.09 39.54 79.09C61.37 79.09 79.09 61.37 79.09 39.54C79.09 17.72 61.37 0 39.54 0ZM39.54 3.41C44 3.41 48.26 4.22 52.19 5.69L44.03 24.75C42.61 24.32 41.1 24.08 39.54 24.08C31.02 24.08 24.08 31.02 24.08 39.54C24.08 41.1 24.32 42.61 24.75 44.03L5.69 52.19C4.22 48.26 3.41 44 3.41 39.54C3.41 19.57 19.57 3.41 39.54 3.41ZM55.32 7.07C62.59 10.61 68.48 16.5 72.02 23.77L52.99 31.92C51.6 29.5 49.59 27.49 47.17 26.1L55.32 7.07ZM73.4 26.9C74.87 30.83 75.67 35.09 75.67 39.54C75.67 59.52 59.52 75.67 39.54 75.67C35.09 75.67 30.83 74.87 26.9 73.4L35.06 54.34C36.48 54.77 37.99 55.01 39.54 55.01C48.07 55.01 55.01 48.07 55.01 39.54C55.01 37.99 54.77 36.48 54.34 35.06L73.4 26.9ZM39.54 27.49C46.22 27.49 51.6 32.87 51.6 39.54C51.6 46.22 46.22 51.6 39.54 51.6C32.87 51.6 27.49 46.22 27.49 39.54C27.49 32.87 32.87 27.49 39.54 27.49ZM39.54 34.38C36.7 34.38 34.38 36.69 34.38 39.54C34.38 42.39 36.7 44.71 39.54 44.71C42.39 44.71 44.71 42.39 44.71 39.54C44.71 36.69 42.39 34.38 39.54 34.38ZM26.1 47.17C27.49 49.59 29.5 51.6 31.92 52.99L23.77 72.02C16.5 68.48 10.61 62.59 7.07 55.32L26.1 47.17Z" fill="url(#paint_linear_51_1145_0)" fill-opacity="1.000000" fill-rule="nonzero"/>
</svg>
