<svg width="46.000000" height="46.000000" viewBox="0 0 46 46" fill="none" xmlns="http://www.w3.org/2000/svg" xmlns:xlink="http://www.w3.org/1999/xlink">
	<desc>
			Created with Pixso.
	</desc>
	<defs/>
	<path id="Vector" d="M46 23C46 19.65 44.09 16.73 41.32 15.26C42.08 12.37 41.34 9.16 39.09 6.9C37.4 5.22 35.18 4.38 32.97 4.38C32.22 4.38 31.46 4.48 30.73 4.67C29.26 1.9 26.34 0 23 0C19.65 0 16.73 1.9 15.26 4.67C14.52 4.48 13.77 4.38 13.02 4.38C10.8 4.38 8.59 5.22 6.9 6.9C4.65 9.16 3.91 12.37 4.67 15.26C1.9 16.73 0 19.65 0 23C0 26.34 1.9 29.26 4.67 30.74C3.91 33.62 4.65 36.83 6.9 39.09C8.59 40.77 10.81 41.61 13.02 41.61C13.78 41.61 14.53 41.51 15.26 41.32C16.73 44.09 19.65 46 23 46C26.34 46 29.26 44.09 30.74 41.32C31.47 41.51 32.22 41.61 32.97 41.61C35.19 41.61 37.4 40.77 39.09 39.09C41.34 36.83 42.08 33.62 41.32 30.74C44.09 29.26 46 26.34 46 23ZM19.71 30.98L12.43 23.7L13.85 22.29L19.71 28.15L32.14 15.72L33.56 17.13L19.71 30.98Z" fill="#606571" fill-opacity="1.000000" fill-rule="nonzero"/>
</svg>
