<svg width="13.000977" height="13.001221" viewBox="0 0 13.001 13.0012" fill="none" xmlns="http://www.w3.org/2000/svg" xmlns:xlink="http://www.w3.org/1999/xlink">
	<desc>
			Created with Pixso.
	</desc>
	<defs/>
	<path id="Vector" d="M6.67 0C3.09 -0.1 0.1 2.73 0 6.31C-0.1 9.9 2.73 12.89 6.31 12.99C9.9 13.09 12.89 10.26 12.99 6.67C13.01 5.92 12.9 5.2 12.68 4.53L11.86 5.3C11.95 5.74 12.01 6.19 11.99 6.65C11.91 9.68 9.37 12.08 6.34 11.99C3.31 11.91 0.91 9.37 0.99 6.34C1.08 3.31 3.61 0.91 6.65 0.99C7.64 1.03 8.56 1.32 9.35 1.81L10.1 1.1C9.12 0.44 7.95 0.03 6.67 0ZM11.49 1.83L5.49 7.83L3.85 6.19L3.49 5.83L2.79 6.54L3.14 6.89L5.49 9.25L12.2 2.54L11.49 1.83Z" fill="#F69020" fill-opacity="1.000000" fill-rule="nonzero"/>
</svg>
