<svg width="19.040039" height="28.560425" viewBox="0 0 19.04 28.5604" fill="none" xmlns="http://www.w3.org/2000/svg" xmlns:xlink="http://www.w3.org/1999/xlink">
	<desc>
			Created with Pixso.
	</desc>
	<defs/>
	<path id="Vector" d="M9.52 0C4.25 0 0 4.25 0 9.52C0 13.87 2.28 18.53 4.52 22.14C6.76 25.75 9 28.32 9 28.32C9.07 28.4 9.15 28.46 9.23 28.5C9.32 28.54 9.42 28.56 9.52 28.56C9.62 28.55 9.71 28.53 9.8 28.49C9.89 28.45 9.97 28.39 10.03 28.32C10.03 28.32 12.27 25.7 14.51 22.06C16.75 18.43 19.04 13.78 19.04 9.52C19.04 4.25 14.78 0 9.52 0ZM9.52 1.35C14.05 1.35 17.68 4.98 17.68 9.52C17.68 13.28 15.54 17.81 13.36 21.35C11.59 24.22 10.11 26.05 9.51 26.79C8.91 26.06 7.44 24.27 5.67 21.42C3.49 17.91 1.35 13.39 1.35 9.52C1.35 4.98 4.98 1.35 9.52 1.35ZM9.52 4.76C6.9 4.76 4.75 6.9 4.75 9.52C4.75 12.13 6.9 14.28 9.52 14.28C12.13 14.28 14.27 12.13 14.27 9.52C14.27 6.9 12.13 4.76 9.52 4.76ZM9.52 6.12C11.39 6.12 12.91 7.64 12.91 9.52C12.91 11.39 11.39 12.92 9.52 12.92C7.64 12.92 6.12 11.39 6.12 9.52C6.12 7.64 7.64 6.12 9.52 6.12Z" fill="#606571" fill-opacity="1.000000" fill-rule="nonzero"/>
</svg>
