<svg width="61.200684" height="59.924999" viewBox="0 0 61.2007 59.925" fill="none" xmlns="http://www.w3.org/2000/svg" xmlns:xlink="http://www.w3.org/1999/xlink">
	<desc>
			Created with Pixso.
	</desc>
	<defs>
		<linearGradient x1="30.600302" y1="0.000000" x2="30.600302" y2="59.924999" id="paint_linear_51_990_0" gradientUnits="userSpaceOnUse">
			<stop stop-color="#FFC619"/>
			<stop offset="0.520833" stop-color="#F69020"/>
			<stop offset="1.000000" stop-color="#EA422A"/>
		</linearGradient>
	</defs>
	<path id="Vector" d="M37.39 0L36.43 0.96L32.07 5.32L37.39 10.64L42.72 5.32L37.39 0ZM20.39 3.28C20.03 3.28 19.69 3.42 19.43 3.68C19.18 3.93 19.04 4.28 19.04 4.64L19.04 11.44C19.04 11.8 19.18 12.14 19.43 12.4C19.69 12.65 20.03 12.8 20.39 12.8L21.75 12.8C23.38 12.8 23.73 13.29 24.08 14.07C24.43 14.85 24.48 16.02 24.48 16.88C24.48 17.99 24.34 19.16 24.15 20.28C22.96 19.86 21.81 19.61 20.75 19.6C19.54 19.59 18.35 19.93 17.5 20.78C17.13 21.14 16.89 21.58 16.7 22.04L16.68 22.03L1.73 59.92L40.97 46.48L40.96 46.46C41.47 46.27 41.94 46.01 42.33 45.62C43.35 44.6 43.63 43.13 43.48 41.67C43.38 40.74 43.11 39.77 42.73 38.75C43.8 38.69 44.94 38.64 46.24 38.64C48.17 38.64 50.01 38.87 51.2 39.29C51.8 39.49 52.22 39.75 52.42 39.94C52.62 40.13 52.63 40.19 52.63 40.34L52.63 41.36C52.63 41.72 52.78 42.06 53.03 42.32C53.29 42.57 53.63 42.72 53.99 42.72L59.83 42.72C60.02 42.72 60.2 42.68 60.36 42.61C60.53 42.54 60.68 42.44 60.81 42.31C60.94 42.18 61.04 42.02 61.1 41.85C61.17 41.68 61.2 41.5 61.2 41.32C61.2 41.32 61.16 39.64 61.16 39.62C61.16 39.62 61.16 39.62 61.16 39.62C61.18 36.53 59.24 34.14 56.84 32.67C54.44 31.2 51.52 30.48 48.93 30.48C44.62 30.48 41.42 31.59 39.28 32.7C38.61 31.78 37.86 30.86 37.05 29.94C37.54 29.78 38.03 29.64 38.51 29.51C39.46 29.25 40.37 29.04 41.07 28.88C41.78 28.72 42.17 28.66 42.52 28.56C43.62 28.25 45.12 27.87 46.46 26.98C47.8 26.08 48.96 24.47 48.96 22.32C48.96 21.73 48.67 21.4 48.48 20.96L48.96 20.96C51.86 20.96 54.39 18.61 54.39 15.52L54.39 13.65C54.39 13.65 54.41 13.46 54.53 13.26C54.66 13.05 54.76 12.8 55.75 12.8L57.12 12.8C57.48 12.8 57.82 12.65 58.08 12.4C58.33 12.14 58.48 11.8 58.48 11.44L58.48 6C58.48 5.64 58.33 5.29 58.08 5.04C57.82 4.78 57.48 4.64 57.12 4.64L54.91 4.64C51.3 4.64 49.06 6.31 47.87 7.9C46.98 9.08 46.71 10.54 46.5 11.79C46.41 12.34 46.43 12.4 46.39 12.8L46.24 12.8C43.89 12.8 42.06 13.65 40.94 14.99C39.82 16.33 39.43 18.01 39.43 19.6L39.43 21.44C37.21 22.18 34.65 23.37 32.46 25.45C31.16 24.35 29.88 23.37 28.61 22.54C30.01 20.09 31.27 16.77 31.27 12.8C31.27 10.46 30.5 8.09 28.87 6.28C27.25 4.47 24.76 3.28 21.65 3.28L21.65 3.28L21.63 3.28L20.39 3.28ZM37.39 3.84L38.87 5.32L37.39 6.8L35.92 5.32L37.39 3.84ZM8.83 5.44L7.87 6.4L3.51 10.76L8.83 16.08L14.16 10.76L8.83 5.44ZM21.75 6.02C24.13 6.04 25.75 6.87 26.85 8.1C27.97 9.35 28.56 11.06 28.56 12.8C28.56 15.63 27.73 17.94 26.77 19.93C26.92 18.89 27.2 17.97 27.2 16.88C27.2 16.02 27.24 14.47 26.57 12.96C25.9 11.45 24.21 10.08 21.75 10.08L21.75 6.02ZM54.91 7.36C54.91 7.36 54.91 7.36 54.91 7.36L55.75 7.36L55.75 10.08C54.03 10.08 52.77 10.93 52.22 11.83C51.66 12.73 51.68 13.65 51.68 13.65L51.68 15.52C51.68 17.19 50.47 18.24 48.96 18.24L46.24 18.24C45.99 18.24 45.74 18.31 45.53 18.43C45.32 18.56 45.15 18.75 45.03 18.96C44.92 19.18 44.86 19.43 44.88 19.68C44.89 19.93 44.97 20.16 45.11 20.37C45.11 20.37 45.22 20.5 45.23 20.51C45.24 20.52 45.24 20.53 45.25 20.53C45.26 20.54 45.27 20.56 45.28 20.57C45.31 20.61 45.36 20.66 45.41 20.72C45.51 20.84 45.65 21.02 45.78 21.22C46.05 21.63 46.24 22.14 46.24 22.32C46.24 23.62 45.77 24.16 44.95 24.71C44.13 25.26 42.9 25.63 41.79 25.94C41.83 25.93 41.21 26.07 40.48 26.23C39.75 26.39 38.81 26.61 37.8 26.89C36.24 27.31 34.69 27.99 33.25 28.71C35.53 25.87 38.65 24.33 41.16 23.63C41.45 23.55 41.7 23.38 41.88 23.14C42.06 22.9 42.16 22.61 42.16 22.32L42.16 19.6C42.16 18.46 42.45 17.43 43.03 16.73C43.61 16.03 44.5 15.52 46.24 15.52L47.6 15.52C47.94 15.52 48.28 15.38 48.53 15.14C48.78 14.9 48.93 14.58 48.95 14.23C48.95 14.23 49 13.32 49.18 12.24C49.37 11.16 49.77 9.89 50.04 9.53C50.04 9.53 50.04 9.53 50.04 9.53C50.89 8.41 52.06 7.36 54.91 7.36ZM8.83 9.28L10.31 10.76L8.83 12.24L7.36 10.76L8.83 9.28ZM56.43 20.96L53.04 24.36L56.43 27.76L59.83 24.36L56.43 20.96ZM3.39 22.32L0 25.72L3.39 29.12L6.79 25.72L3.39 22.32ZM20.72 22.32C21.44 22.32 22.42 22.58 23.55 23.04C23.16 24.53 22.79 25.62 22.67 25.97C22.58 26.25 22.58 26.56 22.68 26.84C22.78 27.12 22.96 27.36 23.21 27.53C23.46 27.69 23.76 27.77 24.05 27.75C24.35 27.73 24.63 27.62 24.86 27.42C25.05 27.26 25.38 26.95 25.99 26.25C26.31 25.89 26.69 25.42 27.09 24.88C28.25 25.61 29.46 26.49 30.66 27.5C30.49 27.74 30.3 27.97 30.14 28.23L27.41 32.46C27.24 32.73 27.17 33.04 27.21 33.35C27.24 33.66 27.39 33.95 27.61 34.17C27.84 34.39 28.13 34.52 28.44 34.55C28.76 34.58 29.07 34.49 29.33 34.32L33.42 31.49C33.66 31.33 33.97 31.16 34.33 30.99C35.3 32.04 36.19 33.1 36.97 34.14C36.53 34.47 36.19 34.77 36.13 34.83C36.13 34.83 36.13 34.83 36.13 34.83L33.04 37.88C32.82 38.1 32.68 38.39 32.64 38.7C32.61 39.01 32.68 39.32 32.85 39.59C33.02 39.85 33.28 40.05 33.57 40.14C33.87 40.24 34.19 40.23 34.48 40.12C34.48 40.12 36.27 39.44 39.89 39C40.39 40.14 40.69 41.16 40.77 41.95C40.87 42.92 40.68 43.43 40.41 43.69C40.31 43.8 40.16 43.89 39.97 43.95L39.83 44C39.59 44.06 39.28 44.09 38.88 44.07C38.03 44.02 36.86 43.7 35.54 43.1C32.89 41.9 29.64 39.6 26.58 36.54C23.51 33.47 21.21 30.22 20.01 27.57C19.41 26.25 19.09 25.08 19.04 24.23C19.02 23.81 19.05 23.49 19.12 23.25C19.13 23.22 19.14 23.2 19.15 23.17C19.22 22.97 19.31 22.81 19.42 22.7C19.64 22.48 20.01 22.31 20.72 22.32ZM17.24 28C17.34 28.23 17.43 28.46 17.53 28.7C18.92 31.76 21.39 35.2 24.65 38.46C27.91 41.72 31.35 44.19 34.41 45.58C34.54 45.63 34.65 45.68 34.78 45.73L6.42 55.44L17.24 28ZM48.93 33.2C51 33.2 53.54 33.84 55.41 34.99C57.29 36.14 58.45 37.63 58.43 39.6C58.43 39.7 58.44 39.83 58.44 40L55.2 40C55.1 39.22 54.82 38.46 54.29 37.97C53.68 37.38 52.92 37.01 52.09 36.72C50.42 36.14 48.38 35.92 46.24 35.92C42.73 35.92 40.34 36.28 38.26 36.62C38.58 36.32 41.93 33.2 48.93 33.2ZM46.91 48.96L45.95 49.92L41.59 54.28L46.91 59.6L52.24 54.28L46.91 48.96ZM46.91 52.8L48.39 54.28L46.91 55.76L45.44 54.28L46.91 52.8Z" fill="url(#paint_linear_51_990_0)" fill-opacity="1.000000" fill-rule="nonzero"/>
</svg>
