<svg width="19.320068" height="19.188782" viewBox="0 0 19.3201 19.1888" fill="none" xmlns="http://www.w3.org/2000/svg" xmlns:xlink="http://www.w3.org/1999/xlink">
	<desc>
			Created with Pixso.
	</desc>
	<defs/>
	<path id="Vector" d="M9.23 0L0.28 3.26C0.12 3.31 0 3.48 0 3.64L0 14.64L9.23 11.34L9.23 0ZM10.08 0L10.08 11.34L12.6 12.21L12.6 5.15L16.37 6.54L16.37 13.55L19.32 14.6L19.32 3.64C19.32 3.48 19.19 3.31 19.03 3.26L10.08 0ZM6.71 4.9L6.71 9.14L2.93 10.61L2.93 6.41L6.71 4.9ZM9.65 12.08L0.34 15.4L9.52 19.14C9.57 19.14 9.61 19.18 9.69 19.18C9.74 19.18 9.82 19.19 9.87 19.14L18.97 15.4L9.65 12.08Z" fill="#FFFFFF" fill-opacity="1.000000" fill-rule="nonzero"/>
</svg>
