<svg width="21.000000" height="15.960022" viewBox="0 0 21 15.96" fill="none" xmlns="http://www.w3.org/2000/svg" xmlns:xlink="http://www.w3.org/1999/xlink">
	<desc>
			Created with Pixso.
	</desc>
	<defs/>
	<path id="Vector" d="M11.3 0C7.57 0 6.19 2.87 7.25 5.31C7.12 5.4 6.91 5.68 6.95 6.16C7.04 7.05 7.44 7.26 7.66 7.31C7.75 8.15 8.28 9.13 8.59 9.26C8.59 9.84 8.58 10.32 8.54 10.94C7.86 12.72 3.52 12.31 2.96 15.51C2.94 15.65 3.08 15.96 3.37 15.96L17.63 15.96C18.06 15.96 18.05 15.64 18.03 15.5C17.46 12.31 13.13 12.72 12.45 10.94C12.41 10.28 12.4 9.84 12.4 9.26C12.71 9.13 13.2 8.1 13.29 7.31C13.51 7.31 13.87 7.04 14 6.15C14.04 5.66 13.86 5.35 13.68 5.31C14.39 4.42 14.27 0.8 11.65 0.8L11.3 0ZM6.36 2.09C3.56 2.14 2.33 4.37 3.17 6.28C3.08 6.33 2.9 6.56 2.95 6.96C3.04 7.68 3.31 7.86 3.49 7.86C3.57 8.53 3.97 9.28 4.19 9.42C4.19 9.87 4.2 9.85 4.16 10.39C3.79 11.54 0 11.45 0 14.28C0 14.28 0 14.7 0.41 14.7L2.32 14.7C2.96 12.88 4.7 12.18 6.02 11.66C6.74 11.38 7.49 11.09 7.71 10.73C7.74 10.34 7.75 10.01 7.75 9.64C7.35 9.19 7.06 8.48 6.91 7.87C6.57 7.62 6.2 7.13 6.11 6.23C6.07 5.8 6.16 5.45 6.31 5.17C5.97 4.13 6 3.05 6.36 2.09ZM15.96 2.09C15.55 2.09 15.08 2.13 14.63 2.2C14.97 3.19 14.98 4.36 14.68 5.21C14.81 5.49 14.87 5.85 14.84 6.23L14.83 6.26L14.83 6.28C14.7 7.11 14.4 7.61 14.04 7.88C13.9 8.45 13.63 9.17 13.24 9.63C13.24 9.99 13.25 10.31 13.28 10.73C13.5 11.09 14.25 11.38 14.97 11.66C16.28 12.18 18.03 12.88 18.67 14.7L20.58 14.7C21 14.7 21 14.29 21 14.29C21 11.04 17.4 11.81 16.86 10.32C16.81 9.83 16.81 9.87 16.81 9.38C17.03 9.24 17.45 8.49 17.49 7.86C17.67 7.86 17.94 7.67 18.03 6.95C18.07 6.59 17.94 6.33 17.81 6.28C18.35 5.56 18.26 2.72 16.23 2.72L15.96 2.09Z" fill="#FFFFFF" fill-opacity="1.000000" fill-rule="nonzero"/>
</svg>
