<svg width="82.896240" height="77.604980" viewBox="0 0 82.8962 77.605" fill="none" xmlns="http://www.w3.org/2000/svg" xmlns:xlink="http://www.w3.org/1999/xlink">
	<desc>
			Created with Pixso.
	</desc>
	<defs>
		<linearGradient x1="41.448120" y1="0.000000" x2="41.448120" y2="77.605003" id="paint_linear_51_1165_0" gradientUnits="userSpaceOnUse">
			<stop stop-color="#FFC619"/>
			<stop offset="0.494792" stop-color="#F69020"/>
			<stop offset="1.000000" stop-color="#EA422A"/>
		</linearGradient>
	</defs>
	<path id="Vector" d="M56.75 0L55.81 1.4L41.08 22.61L28.11 26.45L28.06 26.5L28.01 26.5C26.37 27.12 25.1 28.2 24.12 29.56L24.07 29.62L24.07 29.67L12.86 46.94L12.45 45.59L1.55 48.86L0 49.38L0.46 50.94L7.93 75.99L8.4 77.6L10.01 77.13L19.29 74.28L20.9 73.81L20.38 72.26L19.45 69.09L32.47 66.19C36.47 65.28 40.11 63.12 42.69 59.81L43.31 59.03L49.59 63.44L50.94 64.42L51.87 63.02L81.96 19.55L82.89 18.2L81.49 17.22L58.1 0.98L56.75 0ZM57.58 4.61L78.27 19.03L66.39 36.2C67.92 31.35 65.58 25.53 60.64 22.09C60.62 22.09 60.65 22.05 60.64 22.04C60.62 22.03 60.6 22.05 60.59 22.04C57.7 20.01 54.27 19.16 51.14 19.45C49.35 19.62 47.67 20.19 46.22 21.11L57.58 4.61ZM64.53 14.47C63.62 14.46 62.74 14.91 62.19 15.71C61.31 17 61.64 18.72 62.92 19.6C64.2 20.49 65.98 20.16 66.86 18.88C67.74 17.59 67.42 15.87 66.14 14.99C65.66 14.66 65.07 14.47 64.53 14.47ZM51.56 22.72C53.85 22.51 56.42 23.14 58.67 24.74L58.72 24.79C63.42 28.03 64.82 33.51 62.45 36.93L62.4 36.93C61.21 38.77 59.22 39.77 56.75 39.89C56.83 37.99 56.16 36.09 54.67 34.7C54.66 34.69 54.63 34.71 54.62 34.7C52.36 32.46 48.83 32.09 46.22 33.82C44.63 30.97 44.52 27.88 46.06 25.67C47.24 23.97 49.26 22.92 51.56 22.72ZM38.12 26.97L30.19 39.47L29.3 40.92L30.76 41.75L36.05 44.92L37.03 45.54L37.97 44.76L46.37 37.97C46.8 37.83 47.15 37.53 47.36 37.14L47.77 36.83C49.09 35.72 51.12 35.81 52.34 37.03L52.34 37.09L52.39 37.09C53.75 38.33 53.87 40.28 52.7 41.81L40.09 57.73C38.02 60.4 35.05 62.22 31.74 62.97L18.51 65.93L13.85 50.26L14.36 50.05L14.93 49.85L15.25 49.38L26.81 31.54C27.47 30.61 28.14 30.05 29.1 29.67C29.14 29.65 29.16 29.63 29.2 29.62L38.12 26.97ZM41.91 27.18C41.27 30.06 41.92 33.2 43.57 35.94L36.77 41.5L33.92 39.78L41.91 27.18ZM63.08 41.03L50.11 59.81L45.33 56.43L55.29 43.88L55.29 43.83L55.35 43.83C55.5 43.63 55.63 43.42 55.76 43.21C58.46 43.28 61.06 42.59 63.08 41.03ZM10.21 49.69L16.75 71.63L10.63 73.5L4.09 51.61L10.21 49.69Z" fill="url(#paint_linear_51_1165_0)" fill-opacity="1.000000" fill-rule="nonzero"/>
</svg>
