<svg width="67.915039" height="63.579998" viewBox="0 0 67.915 63.58" fill="none" xmlns="http://www.w3.org/2000/svg" xmlns:xlink="http://www.w3.org/1999/xlink">
	<desc>
			Created with Pixso.
	</desc>
	<defs>
		<linearGradient x1="33.957497" y1="0.000000" x2="33.957497" y2="63.579998" id="paint_linear_51_984_0" gradientUnits="userSpaceOnUse">
			<stop stop-color="#FFC619"/>
			<stop offset="0.520833" stop-color="#F69020"/>
			<stop offset="1.000000" stop-color="#EA422A"/>
		</linearGradient>
	</defs>
	<path id="Vector" d="M46.49 0L45.73 1.14L33.66 18.53L23.03 21.67L22.99 21.71L22.95 21.71C21.6 22.22 20.56 23.1 19.76 24.22L19.72 24.26L19.72 24.31L10.54 38.46L10.2 37.35L1.27 40.03L0 40.46L0.38 41.73L6.5 62.26L6.88 63.58L8.2 63.19L15.81 60.86L17.12 60.47L16.7 59.2L15.93 56.61L26.6 54.23C29.88 53.48 32.86 51.71 34.97 49L35.48 48.36L40.62 51.97L41.73 52.78L42.5 51.63L67.14 16.02L67.91 14.91L66.76 14.11L47.6 0.8L46.49 0ZM47.17 3.78L64.13 15.59L54.39 29.66C55.64 25.68 53.73 20.92 49.68 18.1C49.67 18.09 49.69 18.06 49.68 18.06C49.67 18.05 49.65 18.07 49.64 18.06C47.27 16.39 44.46 15.69 41.9 15.93C40.43 16.07 39.06 16.54 37.86 17.29L47.17 3.78ZM52.87 11.85C52.12 11.85 51.4 12.21 50.95 12.87C50.23 13.92 50.5 15.34 51.55 16.06C52.6 16.78 54.06 16.52 54.78 15.47C55.5 14.41 55.23 13 54.18 12.28C53.79 12.01 53.31 11.86 52.87 11.85ZM42.24 18.61C44.12 18.44 46.22 18.96 48.06 20.27L48.1 20.31C51.96 22.96 53.1 27.46 51.16 30.26L51.12 30.26C50.14 31.76 48.51 32.58 46.49 32.68C46.56 31.12 46.01 29.57 44.79 28.43C44.78 28.42 44.76 28.44 44.75 28.43C42.89 26.59 40 26.29 37.86 27.71C36.57 25.37 36.47 22.84 37.74 21.03C38.7 19.64 40.36 18.78 42.24 18.61ZM31.23 22.1L24.73 32.34L24.01 33.53L25.2 34.21L29.53 36.8L30.34 37.31L31.1 36.67L37.99 31.11C38.34 30.99 38.63 30.75 38.8 30.43L39.14 30.17C40.22 29.27 41.88 29.34 42.88 30.34L42.88 30.38L42.92 30.38C44.04 31.4 44.14 33 43.18 34.25L32.85 47.3C31.15 49.48 28.71 50.97 26 51.59L15.17 54.01L11.34 41.18L11.77 41.01L12.24 40.84L12.49 40.46L21.97 25.84C22.5 25.08 23.06 24.62 23.84 24.31C23.87 24.29 23.89 24.27 23.92 24.26L31.23 22.1ZM34.33 22.27C33.81 24.63 34.34 27.2 35.7 29.45L30.13 34L27.79 32.59L34.33 22.27ZM51.68 33.61L41.05 49L37.14 46.24L45.3 35.95L45.3 35.91L45.34 35.91C45.47 35.74 45.58 35.57 45.68 35.4C47.89 35.46 50.02 34.89 51.68 33.61ZM8.37 40.71L13.72 58.69L8.71 60.22L3.35 42.28L8.37 40.71Z" fill="url(#paint_linear_51_984_0)" fill-opacity="1.000000" fill-rule="nonzero"/>
</svg>
