<svg width="54.735596" height="67.305984" viewBox="0 0 54.7356 67.306" fill="none" xmlns="http://www.w3.org/2000/svg" xmlns:xlink="http://www.w3.org/1999/xlink">
	<desc>
			Created with Pixso.
	</desc>
	<defs>
		<linearGradient x1="27.367805" y1="0.000000" x2="27.367805" y2="67.305984" id="paint_linear_51_972_0" gradientUnits="userSpaceOnUse">
			<stop stop-color="#FFC619"/>
			<stop offset="0.520833" stop-color="#F69020"/>
			<stop offset="1.000000" stop-color="#EA422A"/>
		</linearGradient>
	</defs>
	<path id="Vector" d="M39.24 0C30.82 0 23.92 6.79 23.76 15.18C22.95 16.45 12.21 33.37 3.76 41.82L3.81 41.86C3.69 41.95 3.28 42.19 3.02 42.87C2.72 43.65 2.96 44.95 3.81 45.8L5.77 47.77L3.41 50.13C0.99 52.55 -0.08 55.29 0 57.88C0.08 60.46 1.24 62.84 3.02 64.53C6.57 67.91 12.77 68.69 17.37 64.09L36.57 44.88C40.31 41.15 44.39 41.92 46.9 44.36C48.15 45.58 48.96 47.23 49 49C49.04 50.76 48.36 52.69 46.42 54.64L37.54 63.52C36.96 64.1 36.96 65.04 37.54 65.62C38.12 66.2 39.06 66.2 39.64 65.62L48.47 56.74C50.89 54.32 51.99 51.55 51.93 48.95C51.88 46.35 50.72 43.97 48.96 42.26C47.19 40.55 44.76 39.49 42.17 39.46C39.59 39.42 36.88 40.43 34.52 42.78L15.31 61.99C11.72 65.58 7.61 64.8 5.07 62.38C3.81 61.17 2.99 59.53 2.93 57.79C2.88 56.05 3.52 54.14 5.47 52.19L5.6 52.1L7.83 49.87L8.88 50.88C9.72 51.71 10.87 52.03 11.68 51.8C12.39 51.59 12.63 51.13 12.73 51.01L12.82 51.1C21.05 42.85 38.27 31.79 39.55 30.97C47.94 30.81 54.73 23.91 54.73 15.48C54.73 6.96 47.76 0 39.24 0ZM39.24 2.97C46.17 2.97 51.76 8.55 51.76 15.48C51.76 18.26 50.86 20.81 49.35 22.88L31.85 5.38C33.92 3.86 36.47 2.97 39.24 2.97ZM29.71 7.39L47.38 25.02C45.2 26.88 42.35 28 39.24 28C32.31 28 26.73 22.42 26.73 15.48C26.73 12.38 27.85 9.57 29.71 7.39ZM24.32 19.55C25.77 24.84 29.96 29.03 35.26 30.45C29.56 34.21 17.67 42.28 10.94 49C10.91 48.97 10.92 48.98 10.85 48.91L5.77 43.79C12.62 36.93 20.61 25.23 24.32 19.55ZM24.11 28.83C23.68 28.83 23.24 28.99 22.92 29.31L19.16 33.11C18.52 33.75 18.52 34.79 19.16 35.43L19.29 35.56C19.93 36.2 20.97 36.2 21.61 35.56L25.42 31.76C26.06 31.12 26.05 30.08 25.42 29.44L25.24 29.31C24.93 28.99 24.53 28.83 24.11 28.83Z" fill="url(#paint_linear_51_972_0)" fill-opacity="1.000000" fill-rule="nonzero"/>
</svg>
