<svg width="48.000488" height="26.000000" viewBox="0 0 48.0005 26" fill="none" xmlns="http://www.w3.org/2000/svg" xmlns:xlink="http://www.w3.org/1999/xlink">
	<desc>
			Created with Pixso.
	</desc>
	<defs/>
	<path id="Vector" d="M24 0C10.67 0 0.24 12.34 0.24 12.34C0.08 12.53 0 12.76 0 13C0 13.23 0.08 13.46 0.24 13.65C0.24 13.65 10.67 26 24 26C37.33 26 47.75 13.65 47.75 13.65C47.91 13.46 48 13.23 48 13C48 12.76 47.91 12.53 47.75 12.34C47.75 12.34 37.33 0 24 0ZM24 2C26.66 2 29.21 2.55 31.56 3.4C33.14 5.2 34 7.39 34 10C34 15.56 29.56 20 24 20C18.43 20 14 15.56 14 10C14 7.52 14.95 5.21 16.44 3.4C18.79 2.55 21.33 2 24 2ZM13.19 4.81C12.44 6.39 12 8.15 12 10C12 16.63 17.36 22 24 22C30.63 22 36 16.63 36 10C36 8.13 35.6 6.4 34.86 4.84C40.52 7.71 44.58 11.89 45.6 13C44.01 14.72 34.99 24 24 24C13 24 3.98 14.72 2.39 13C3.41 11.89 7.5 7.68 13.19 4.81ZM24 5C22.67 5 21.4 5.52 20.46 6.46C19.52 7.4 19 8.67 19 10C19 11.32 19.52 12.59 20.46 13.53C21.4 14.47 22.67 15 24 15C25.32 15 26.59 14.47 27.53 13.53C28.47 12.59 29 11.32 29 10C29 8.67 28.47 7.4 27.53 6.46C26.59 5.52 25.32 5 24 5Z" fill="#FFFFFF" fill-opacity="1.000000" fill-rule="nonzero"/>
</svg>
