<svg width="34.683594" height="37.729492" viewBox="0 0 34.6836 37.7295" fill="none" xmlns="http://www.w3.org/2000/svg" xmlns:xlink="http://www.w3.org/1999/xlink">
	<desc>
			Created with Pixso.
	</desc>
	<defs>
		<linearGradient x1="17.341721" y1="0.000000" x2="17.341721" y2="37.729610" id="paint_linear_51_1297_0" gradientUnits="userSpaceOnUse">
			<stop stop-color="#FFC619"/>
			<stop offset="0.494792" stop-color="#F69020"/>
			<stop offset="1.000000" stop-color="#EA422A"/>
		</linearGradient>
	</defs>
	<path id="Vector" d="M15.58 0L15.58 3.35C6.85 4.17 0 11.54 0 20.5C0 30 7.72 37.72 17.22 37.72C26.73 37.72 34.45 30 34.45 20.5C34.45 11.54 27.6 4.17 18.86 3.35L18.86 0L15.58 0ZM31.2 0.82L28.88 3.13L29.94 4.19L28.7 5.43L30.06 6.79L31.3 5.55L32.36 6.61L34.68 4.29L31.2 0.82ZM17.22 4.92C25.83 4.92 32.79 11.89 32.79 20.5C32.79 29.1 25.83 36.07 17.22 36.07C8.62 36.07 1.65 29.1 1.65 20.5C1.65 11.89 8.62 4.92 17.22 4.92ZM17.21 8.17C16.99 8.18 16.78 8.27 16.63 8.43C16.48 8.58 16.39 8.8 16.39 9.02L16.39 18.18C15.92 18.35 15.51 18.67 15.21 19.08C14.92 19.49 14.77 19.99 14.76 20.5C14.77 21 14.92 21.5 15.21 21.91C15.51 22.32 15.92 22.64 16.39 22.81L16.39 24.6C16.39 24.82 16.48 25.03 16.64 25.18C16.79 25.34 17 25.42 17.22 25.42C17.44 25.42 17.66 25.34 17.81 25.18C17.97 25.03 18.05 24.82 18.05 24.6L18.05 22.81C18.53 22.64 18.94 22.32 19.24 21.91C19.53 21.5 19.68 21 19.68 20.5C19.68 19.99 19.53 19.49 19.24 19.08C18.94 18.67 18.53 18.35 18.05 18.18L18.05 9.02C18.06 8.9 18.04 8.79 17.99 8.69C17.95 8.59 17.89 8.5 17.81 8.42C17.73 8.34 17.64 8.28 17.54 8.23C17.43 8.19 17.32 8.17 17.21 8.17Z" fill="url(#paint_linear_51_1297_0)" fill-opacity="1.000000" fill-rule="nonzero"/>
</svg>
