<svg width="15.200195" height="15.200134" viewBox="0 0 15.2002 15.2001" fill="none" xmlns="http://www.w3.org/2000/svg" xmlns:xlink="http://www.w3.org/1999/xlink">
	<desc>
			Created with Pixso.
	</desc>
	<defs/>
	<path id="Vector" d="M0 6.1e-5L0 4.94C-0.01 5.04 0.01 5.14 0.05 5.23C0.09 5.32 0.14 5.41 0.21 5.48C0.28 5.55 0.37 5.61 0.46 5.65C0.55 5.69 0.65 5.71 0.76 5.71C0.86 5.71 0.96 5.69 1.05 5.65C1.14 5.61 1.23 5.55 1.3 5.48C1.37 5.41 1.42 5.32 1.46 5.23C1.5 5.14 1.52 5.04 1.52 4.94L1.52 2.59L5.73 6.8C5.8 6.88 5.88 6.93 5.97 6.97C6.07 7.01 6.17 7.04 6.27 7.04C6.37 7.04 6.47 7.02 6.56 6.98C6.66 6.94 6.74 6.88 6.81 6.81C6.88 6.74 6.94 6.66 6.98 6.56C7.02 6.47 7.04 6.37 7.04 6.27C7.04 6.17 7.01 6.07 6.97 5.97C6.93 5.88 6.88 5.8 6.8 5.73L2.59 1.52L4.94 1.52C5.04 1.52 5.14 1.5 5.23 1.46C5.32 1.42 5.41 1.37 5.48 1.3C5.55 1.23 5.61 1.14 5.65 1.05C5.69 0.96 5.71 0.86 5.71 0.76C5.71 0.65 5.69 0.55 5.65 0.46C5.61 0.37 5.55 0.28 5.48 0.21C5.41 0.14 5.32 0.09 5.23 0.05C5.14 0.01 5.04 -0.01 4.94 6.1e-5L0 6.1e-5ZM10.26 6.1e-5C10.15 -0.01 10.05 0.01 9.96 0.05C9.87 0.09 9.78 0.14 9.71 0.21C9.64 0.28 9.58 0.37 9.54 0.46C9.5 0.55 9.48 0.65 9.48 0.76C9.48 0.86 9.5 0.96 9.54 1.05C9.58 1.14 9.64 1.23 9.71 1.3C9.78 1.37 9.87 1.42 9.96 1.46C10.05 1.5 10.15 1.52 10.26 1.52L12.57 1.52L8.39 5.73C8.31 5.8 8.26 5.88 8.22 5.98C8.18 6.07 8.15 6.17 8.15 6.27C8.15 6.37 8.17 6.47 8.21 6.57C8.25 6.66 8.31 6.74 8.38 6.82C8.45 6.89 8.54 6.94 8.63 6.98C8.72 7.02 8.82 7.04 8.93 7.04C9.03 7.03 9.13 7.01 9.22 6.97C9.31 6.93 9.39 6.87 9.46 6.8L13.68 2.56L13.68 4.94C13.67 5.04 13.69 5.14 13.73 5.23C13.77 5.32 13.82 5.41 13.89 5.48C13.96 5.55 14.05 5.61 14.14 5.65C14.23 5.69 14.33 5.71 14.44 5.71C14.54 5.71 14.64 5.69 14.73 5.65C14.82 5.61 14.91 5.55 14.98 5.48C15.05 5.41 15.1 5.32 15.14 5.23C15.18 5.14 15.2 5.04 15.2 4.94L15.2 6.1e-5L10.26 6.1e-5ZM6.25 8.16C6.06 8.16 5.87 8.24 5.73 8.39L1.52 12.57L1.52 10.26C1.52 10.15 1.5 10.05 1.46 9.96C1.42 9.87 1.37 9.78 1.3 9.71C1.23 9.64 1.14 9.58 1.05 9.54C0.96 9.5 0.86 9.48 0.76 9.48C0.65 9.48 0.55 9.5 0.46 9.54C0.37 9.58 0.28 9.64 0.21 9.71C0.14 9.78 0.09 9.87 0.05 9.96C0.01 10.05 -0.01 10.15 0 10.26L0 15.2L4.94 15.2C5.04 15.2 5.14 15.18 5.23 15.14C5.32 15.1 5.41 15.05 5.48 14.98C5.55 14.91 5.61 14.82 5.65 14.73C5.69 14.64 5.71 14.54 5.71 14.44C5.71 14.33 5.69 14.23 5.65 14.14C5.61 14.05 5.55 13.96 5.48 13.89C5.41 13.82 5.32 13.77 5.23 13.73C5.14 13.69 5.04 13.67 4.94 13.68L2.56 13.68L6.8 9.46C6.91 9.36 6.99 9.22 7.02 9.07C7.05 8.92 7.03 8.77 6.97 8.62C6.91 8.48 6.81 8.36 6.69 8.28C6.56 8.2 6.41 8.15 6.25 8.16ZM8.92 8.16C8.77 8.16 8.62 8.2 8.49 8.29C8.37 8.37 8.27 8.49 8.21 8.63C8.16 8.77 8.14 8.93 8.17 9.07C8.2 9.22 8.28 9.36 8.39 9.46L12.6 13.68L10.26 13.68C10.15 13.67 10.05 13.69 9.96 13.73C9.87 13.77 9.78 13.82 9.71 13.89C9.64 13.96 9.58 14.05 9.54 14.14C9.5 14.23 9.48 14.33 9.48 14.44C9.48 14.54 9.5 14.64 9.54 14.73C9.58 14.82 9.64 14.91 9.71 14.98C9.78 15.05 9.87 15.1 9.96 15.14C10.05 15.18 10.15 15.2 10.26 15.2L15.2 15.2L15.2 10.26C15.2 10.15 15.18 10.05 15.14 9.96C15.1 9.87 15.05 9.78 14.98 9.71C14.91 9.64 14.82 9.58 14.73 9.54C14.64 9.5 14.54 9.48 14.44 9.48C14.33 9.48 14.23 9.5 14.14 9.54C14.05 9.58 13.96 9.64 13.89 9.71C13.82 9.78 13.77 9.87 13.73 9.96C13.69 10.05 13.67 10.15 13.68 10.26L13.68 12.6L9.46 8.39C9.39 8.31 9.31 8.26 9.21 8.22C9.12 8.18 9.02 8.16 8.92 8.16Z" fill="#FFFFFF" fill-opacity="1.000000" fill-rule="nonzero"/>
</svg>
