<svg width="79.120117" height="79.119995" viewBox="0 0 79.1201 79.12" fill="none" xmlns="http://www.w3.org/2000/svg" xmlns:xlink="http://www.w3.org/1999/xlink">
	<desc>
			Created with Pixso.
	</desc>
	<defs>
		<linearGradient x1="39.559998" y1="0.000000" x2="39.559998" y2="79.119995" id="paint_linear_51_1175_0" gradientUnits="userSpaceOnUse">
			<stop stop-color="#FFC619"/>
			<stop offset="0.479167" stop-color="#F69020"/>
			<stop offset="1.000000" stop-color="#EA422A"/>
		</linearGradient>
	</defs>
	<path id="Vector" d="M39.56 0C17.74 0 0 17.74 0 39.56C0 61.37 17.74 79.12 39.56 79.12C61.37 79.12 79.12 61.37 79.12 39.56C79.12 31.65 76.78 24.28 72.76 18.09L71.23 19.63L70.25 20.61C73.67 26.12 75.67 32.6 75.67 39.56C75.67 59.47 59.47 75.67 39.56 75.67C19.64 75.67 3.43 59.47 3.43 39.56C3.43 19.64 19.64 3.43 39.56 3.43C48.01 3.43 55.76 6.39 61.91 11.27L61.91 14.76L57.73 18.95C52.87 14.66 46.52 12.04 39.56 12.04C24.38 12.04 12.04 24.38 12.04 39.56C12.04 54.73 24.38 67.08 39.56 67.08C54.73 67.08 67.08 54.73 67.08 39.56C67.08 33.83 65.31 28.51 62.31 24.1L59.82 26.59C62.22 30.34 63.63 34.78 63.63 39.56C63.63 52.83 52.83 63.64 39.56 63.64C26.28 63.64 15.48 52.83 15.48 39.56C15.48 26.28 26.28 15.48 39.56 15.48C45.58 15.48 51.07 17.71 55.29 21.38L49.19 27.48C46.55 25.36 43.2 24.08 39.56 24.08C31.02 24.08 24.08 31.02 24.08 39.56C24.08 48.09 31.02 55.04 39.56 55.04C48.09 55.04 55.04 48.09 55.04 39.56C55.04 37.17 54.48 34.92 53.51 32.9L50.89 35.52C51.34 36.78 51.6 38.14 51.6 39.56C51.6 46.19 46.19 51.6 39.56 51.6C32.92 51.6 27.52 46.19 27.52 39.56C27.52 32.92 32.92 27.52 39.56 27.52C42.26 27.52 44.74 28.42 46.75 29.93L40.44 36.24C40.15 36.16 39.85 36.12 39.56 36.12C38.64 36.12 37.77 36.48 37.12 37.12C36.48 37.77 36.12 38.64 36.12 39.56C36.12 40.47 36.48 41.34 37.12 41.99C37.77 42.63 38.64 43 39.56 43C40.47 43 41.34 42.63 41.99 41.99C42.63 41.34 43 40.47 43 39.56C42.99 39.25 42.96 38.96 42.88 38.66L64.35 17.2L68.8 17.2L77.39 8.59L70.51 8.59L70.51 1.71L63.85 8.38C57.14 3.13 48.71 0 39.56 0Z" fill="url(#paint_linear_51_1175_0)" fill-opacity="1.000000" fill-rule="nonzero"/>
</svg>
