<svg width="37.705566" height="36.090820" viewBox="0 0 37.7056 36.0908" fill="none" xmlns="http://www.w3.org/2000/svg" xmlns:xlink="http://www.w3.org/1999/xlink">
	<desc>
			Created with Pixso.
	</desc>
	<defs>
		<linearGradient x1="18.852877" y1="0.000000" x2="18.852877" y2="36.090816" id="paint_linear_51_1240_0" gradientUnits="userSpaceOnUse">
			<stop stop-color="#FFC619"/>
			<stop offset="0.479167" stop-color="#F69020"/>
			<stop offset="1.000000" stop-color="#EA422A"/>
		</linearGradient>
	</defs>
	<path id="Vector" d="M28.65 0C27.11 0.02 25.87 0.47 25.02 1.28C24.18 2.1 23.79 3.23 23.76 4.41C23.76 4.41 23.76 4.41 23.76 4.41C23.74 5.18 23.9 5.88 24.08 6.65C23.87 6.97 23.72 7.35 23.78 7.87C23.78 7.87 23.78 7.87 23.78 7.87C23.86 8.45 24.02 8.91 24.29 9.25C24.41 9.41 24.59 9.42 24.75 9.52C24.92 10.07 25.15 10.59 25.47 11.01C25.67 11.28 25.88 11.52 26.07 11.72C26.11 11.76 26.17 11.79 26.21 11.83C26.21 12.25 26.21 12.64 26.18 13.07C26.09 13.29 25.78 13.55 25.13 13.82C24.76 13.97 24.32 14.12 23.85 14.28C23.88 14.06 23.9 13.83 23.9 13.56C23.9 13.56 23.9 13.56 23.9 13.56C23.91 12.79 23.78 11.97 23.35 11.24C22.95 10.57 22.21 10.06 21.29 9.87C20.71 9.29 19.89 9.02 18.96 9.02C18.96 9.02 18.95 9.02 18.95 9.02C17.41 9.04 16.17 9.49 15.33 10.3C14.48 11.12 14.09 12.25 14.06 13.43C14.06 13.43 14.06 13.43 14.06 13.43C14.05 13.72 14.08 14 14.11 14.28C13.56 14.09 13.01 13.92 12.57 13.75C11.89 13.49 11.58 13.23 11.5 13.07C11.47 12.64 11.47 12.25 11.47 11.84C11.51 11.8 11.57 11.77 11.61 11.72C11.8 11.53 12.01 11.29 12.22 11.02C12.54 10.6 12.77 10.07 12.93 9.52C13.09 9.43 13.28 9.42 13.4 9.26C13.67 8.91 13.83 8.46 13.9 7.87L13.9 7.87C13.96 7.36 13.81 6.96 13.6 6.64C13.75 6.07 13.91 5.44 13.92 4.55C13.93 3.77 13.8 2.95 13.37 2.23C12.96 1.55 12.23 1.04 11.31 0.86C10.73 0.27 9.91 0 8.98 0C8.98 0 8.97 0 8.97 0C7.42 0.03 6.19 0.48 5.34 1.29C4.5 2.1 4.11 3.23 4.08 4.42C4.08 4.42 4.08 4.42 4.08 4.42C4.06 5.19 4.22 5.88 4.4 6.65C4.19 6.97 4.04 7.36 4.1 7.87C4.1 7.87 4.1 7.87 4.1 7.87C4.18 8.46 4.34 8.91 4.61 9.26C4.73 9.42 4.91 9.43 5.07 9.52C5.24 10.07 5.47 10.6 5.78 11.02C5.99 11.29 6.2 11.53 6.39 11.72C6.43 11.77 6.49 11.79 6.53 11.84C6.53 12.25 6.53 12.64 6.5 13.08C6.42 13.26 6.22 13.46 5.75 13.69C5.25 13.93 4.54 14.15 3.79 14.42C3.05 14.69 2.25 15.02 1.55 15.54C0.85 16.07 0.25 16.84 0.02 17.86C-0.01 17.97 -0.01 18.08 0 18.19C0.02 18.3 0.06 18.4 0.11 18.5C0.17 18.59 0.25 18.68 0.33 18.74C0.42 18.81 0.53 18.85 0.63 18.88C0.74 18.9 0.85 18.9 0.96 18.88C1.07 18.86 1.18 18.82 1.27 18.76C1.36 18.7 1.44 18.62 1.5 18.53C1.56 18.43 1.6 18.33 1.62 18.22C1.76 17.6 2.07 17.21 2.54 16.85C3.01 16.5 3.66 16.21 4.36 15.96C5.05 15.71 5.78 15.49 6.45 15.17C7.12 14.85 7.79 14.41 8.09 13.62C8.11 13.55 8.13 13.48 8.13 13.4C8.2 12.64 8.18 12.1 8.18 11.48C8.18 11.33 8.14 11.18 8.06 11.05C7.98 10.92 7.87 10.82 7.74 10.75C7.87 10.82 7.7 10.71 7.56 10.57C7.42 10.43 7.25 10.24 7.09 10.03C6.77 9.6 6.52 9.06 6.5 8.93C6.49 8.76 6.42 8.6 6.31 8.48C6.2 8.35 6.05 8.26 5.89 8.22C5.86 8.18 5.78 8.04 5.73 7.68C5.72 7.59 5.74 7.54 5.75 7.52C5.88 7.42 5.98 7.29 6.03 7.13C6.09 6.98 6.09 6.82 6.05 6.66C5.81 5.74 5.7 5.17 5.72 4.46C5.74 3.59 6 2.94 6.48 2.47C6.97 2 7.74 1.67 8.98 1.64L8.98 1.64C9.81 1.64 10.23 1.91 10.29 2C10.35 2.11 10.44 2.2 10.54 2.27C10.64 2.34 10.76 2.39 10.89 2.41C11.49 2.49 11.75 2.71 11.96 3.07C12.17 3.42 12.28 3.96 12.28 4.53C12.27 5.46 12.12 6.16 11.97 6.6C11.92 6.77 11.91 6.94 11.97 7.11C12.02 7.27 12.12 7.42 12.26 7.52C12.27 7.55 12.28 7.59 12.27 7.67C12.23 8.04 12.14 8.18 12.12 8.22C11.96 8.26 11.81 8.35 11.7 8.48C11.59 8.6 11.52 8.76 11.5 8.93C11.49 9.05 11.24 9.6 10.91 10.02C10.75 10.24 10.58 10.43 10.44 10.57C10.3 10.71 10.13 10.82 10.26 10.75C10.13 10.82 10.02 10.92 9.94 11.05C9.86 11.18 9.82 11.33 9.82 11.48C9.82 12.1 9.8 12.64 9.87 13.4C9.87 13.48 9.89 13.55 9.91 13.62C10.27 14.57 11.16 14.97 11.99 15.28C12.74 15.57 13.53 15.79 14.19 16.05C14.1 16.29 14.05 16.56 14.09 16.89C14.09 16.89 14.09 16.89 14.09 16.89C14.16 17.48 14.32 17.93 14.59 18.27C14.71 18.43 14.9 18.44 15.05 18.54C15.22 19.09 15.45 19.61 15.77 20.03C15.97 20.3 16.18 20.54 16.37 20.74C16.42 20.78 16.47 20.81 16.51 20.85C16.51 21.27 16.52 21.66 16.49 22.09C16.38 22.31 16.05 22.59 15.36 22.86C14.89 23.06 14.3 23.24 13.69 23.47C13.81 22.99 13.91 22.47 13.92 21.76C13.93 20.99 13.8 20.17 13.37 19.44C12.96 18.77 12.23 18.26 11.31 18.07C10.72 17.49 9.9 17.21 8.98 17.21C8.98 17.21 8.97 17.21 8.97 17.21C7.43 17.24 6.19 17.69 5.34 18.5C4.5 19.32 4.11 20.45 4.08 21.63C4.08 21.63 4.08 21.63 4.08 21.63C4.06 22.4 4.22 23.1 4.4 23.87C4.19 24.19 4.04 24.57 4.1 25.09C4.1 25.09 4.1 25.09 4.1 25.09C4.18 25.68 4.34 26.13 4.61 26.47C4.73 26.63 4.91 26.64 5.07 26.74C5.24 27.29 5.47 27.81 5.78 28.23C5.99 28.5 6.2 28.74 6.39 28.94C6.43 28.98 6.49 29.01 6.53 29.05C6.53 29.47 6.53 29.86 6.5 30.3C6.42 30.47 6.22 30.68 5.75 30.9C5.25 31.14 4.54 31.37 3.79 31.64C3.05 31.91 2.25 32.23 1.55 32.76C0.85 33.29 0.25 34.06 0.02 35.08C-0.03 35.29 0.01 35.51 0.13 35.69C0.25 35.88 0.43 36.01 0.64 36.06C0.85 36.1 1.08 36.07 1.26 35.95C1.44 35.83 1.57 35.65 1.62 35.44C1.76 34.82 2.07 34.43 2.54 34.07C3.01 33.71 3.66 33.43 4.35 33.18C5.05 32.92 5.78 32.7 6.45 32.39C7.12 32.07 7.79 31.62 8.08 30.83C8.11 30.76 8.13 30.69 8.13 30.62C8.2 29.86 8.18 29.32 8.18 28.69C8.18 28.54 8.14 28.39 8.06 28.27C7.98 28.14 7.87 28.03 7.74 27.96C7.87 28.03 7.7 27.93 7.56 27.79C7.42 27.65 7.25 27.45 7.09 27.24C6.77 26.82 6.52 26.27 6.5 26.14C6.48 25.98 6.42 25.82 6.31 25.7C6.2 25.57 6.05 25.48 5.89 25.44C5.87 25.4 5.78 25.26 5.73 24.89C5.72 24.8 5.74 24.76 5.75 24.73C5.88 24.64 5.98 24.5 6.03 24.35C6.09 24.2 6.09 24.03 6.05 23.87C5.81 22.96 5.7 22.38 5.72 21.67C5.74 20.81 5.99 20.16 6.48 19.68C6.97 19.22 7.75 18.88 8.99 18.86C9.81 18.86 10.23 19.12 10.29 19.21C10.35 19.32 10.43 19.42 10.54 19.49C10.64 19.56 10.76 19.6 10.89 19.62C11.48 19.7 11.75 19.93 11.96 20.28C12.17 20.64 12.28 21.18 12.28 21.74C12.27 22.67 12.12 23.38 11.97 23.82C11.92 23.98 11.91 24.16 11.97 24.32C12.02 24.49 12.12 24.63 12.26 24.73C12.27 24.76 12.28 24.8 12.27 24.89C12.23 25.26 12.14 25.4 12.11 25.44C11.95 25.48 11.81 25.57 11.7 25.7C11.59 25.82 11.52 25.98 11.5 26.14C11.49 26.27 11.24 26.82 10.91 27.24C10.75 27.45 10.58 27.65 10.44 27.79C10.3 27.93 10.13 28.03 10.26 27.96C10.13 28.03 10.02 28.14 9.94 28.27C9.86 28.39 9.82 28.54 9.82 28.69C9.82 29.32 9.8 29.86 9.86 30.62C9.87 30.74 9.91 30.85 9.97 30.95C10.03 31.05 10.11 31.14 10.2 31.21C10.55 31.74 11.03 32.13 11.57 32.39C12.24 32.7 12.97 32.92 13.67 33.18C14.36 33.43 15.01 33.71 15.48 34.07C15.95 34.43 16.26 34.82 16.4 35.44C16.42 35.54 16.46 35.64 16.53 35.73C16.59 35.82 16.67 35.9 16.76 35.96C16.85 36.01 16.95 36.05 17.06 36.07C17.17 36.09 17.28 36.09 17.38 36.07C17.49 36.04 17.59 36 17.68 35.93C17.76 35.87 17.84 35.79 17.9 35.7C17.95 35.61 17.99 35.5 18.01 35.4C18.03 35.29 18.02 35.18 18 35.08C17.77 34.06 17.17 33.29 16.47 32.76C15.77 32.23 14.97 31.91 14.23 31.64C13.48 31.36 12.78 31.14 12.27 30.9C11.78 30.67 11.57 30.46 11.49 30.28C11.47 29.85 11.47 29.46 11.47 29.05C11.51 29.01 11.57 28.98 11.61 28.94C11.8 28.74 12.01 28.5 12.22 28.24C12.54 27.82 12.77 27.29 12.93 26.74C13.09 26.64 13.28 26.63 13.4 26.47C13.66 26.14 13.81 25.71 13.89 25.17C14.56 24.9 15.28 24.66 15.97 24.39C16.82 24.04 17.71 23.6 18.07 22.63C18.09 22.56 18.11 22.49 18.12 22.42C18.18 21.66 18.16 21.12 18.16 20.49C18.16 20.34 18.12 20.19 18.04 20.07C17.96 19.94 17.85 19.83 17.72 19.76C17.85 19.83 17.68 19.73 17.54 19.59C17.4 19.45 17.23 19.25 17.07 19.04C16.75 18.62 16.5 18.07 16.49 17.94C16.47 17.78 16.4 17.62 16.29 17.49C16.18 17.37 16.03 17.28 15.87 17.24C15.84 17.2 15.76 17.06 15.71 16.69C15.7 16.6 15.72 16.56 15.73 16.53C15.86 16.44 15.96 16.3 16.01 16.15C16.07 16 16.08 15.83 16.03 15.67C15.8 14.76 15.68 14.18 15.7 13.47C15.72 12.61 15.98 11.96 16.46 11.48C16.95 11.02 17.73 10.68 18.97 10.66C19.79 10.66 20.22 10.92 20.27 11.01C20.33 11.12 20.42 11.22 20.52 11.29C20.63 11.36 20.74 11.4 20.87 11.42C21.47 11.5 21.73 11.73 21.94 12.08C22.15 12.44 22.27 12.97 22.26 13.54C22.25 14.47 22.1 15.18 21.95 15.62C21.9 15.78 21.9 15.96 21.95 16.12C22 16.29 22.1 16.43 22.24 16.53C22.25 16.56 22.27 16.6 22.26 16.69C22.26 16.69 22.26 16.69 22.26 16.69C22.21 17.06 22.12 17.2 22.1 17.24C21.94 17.28 21.79 17.37 21.68 17.49C21.57 17.62 21.5 17.78 21.49 17.94C21.47 18.07 21.22 18.62 20.9 19.04C20.73 19.25 20.56 19.45 20.42 19.59C20.29 19.73 20.11 19.83 20.24 19.76C20.11 19.83 20 19.94 19.92 20.06C19.85 20.19 19.81 20.34 19.81 20.49C19.81 21.12 19.78 21.65 19.85 22.42C19.85 22.49 19.87 22.56 19.9 22.63C20.25 23.59 21.15 23.99 21.98 24.3C22.59 24.53 23.21 24.72 23.78 24.92C23.78 24.98 23.78 25.03 23.78 25.09C23.78 25.09 23.78 25.09 23.78 25.09C23.86 25.68 24.02 26.13 24.29 26.47C24.41 26.63 24.59 26.64 24.75 26.74C24.92 27.29 25.15 27.81 25.47 28.23C25.67 28.5 25.88 28.74 26.07 28.94C26.11 28.98 26.17 29.01 26.21 29.05C26.21 29.47 26.21 29.86 26.18 30.3C26.1 30.47 25.9 30.68 25.43 30.9C24.93 31.14 24.22 31.37 23.47 31.64C22.73 31.91 21.93 32.23 21.23 32.76C20.53 33.29 19.93 34.06 19.7 35.08C19.65 35.29 19.69 35.51 19.81 35.69C19.92 35.88 20.11 36.01 20.32 36.06C20.53 36.1 20.76 36.07 20.94 35.95C21.12 35.83 21.25 35.65 21.3 35.44C21.44 34.82 21.75 34.43 22.22 34.07C22.69 33.71 23.34 33.43 24.03 33.18C24.73 32.92 25.46 32.7 26.13 32.39C26.8 32.07 27.47 31.62 27.76 30.83C27.79 30.76 27.81 30.69 27.81 30.62C27.88 29.86 27.86 29.32 27.86 28.69C27.86 28.54 27.82 28.39 27.74 28.27C27.66 28.14 27.55 28.03 27.42 27.96C27.55 28.03 27.38 27.93 27.24 27.79C27.1 27.65 26.93 27.45 26.77 27.24C26.45 26.82 26.2 26.27 26.18 26.14C26.16 25.98 26.1 25.82 25.99 25.7C25.88 25.57 25.73 25.48 25.57 25.44C25.55 25.4 25.46 25.26 25.41 24.89C25.41 24.89 25.41 24.89 25.41 24.88C25.47 24.81 25.51 24.73 25.53 24.64C25.63 24.54 25.7 24.42 25.73 24.28C25.77 24.15 25.77 24.01 25.73 23.87C25.49 22.96 25.38 22.38 25.4 21.67C25.42 20.81 25.67 20.16 26.16 19.68C26.65 19.22 27.42 18.88 28.67 18.86C29.49 18.86 29.91 19.12 29.97 19.21C30.03 19.32 30.11 19.42 30.22 19.49C30.32 19.56 30.44 19.6 30.57 19.62C31.16 19.7 31.43 19.93 31.64 20.28C31.85 20.64 31.96 21.18 31.96 21.74C31.95 22.67 31.8 23.38 31.65 23.82C31.6 23.98 31.59 24.16 31.65 24.32C31.7 24.49 31.8 24.63 31.94 24.73C31.95 24.76 31.96 24.8 31.95 24.89C31.91 25.26 31.82 25.4 31.79 25.44C31.63 25.48 31.49 25.57 31.38 25.7C31.27 25.82 31.2 25.98 31.18 26.14C31.17 26.27 30.92 26.82 30.59 27.24C30.43 27.45 30.26 27.65 30.12 27.79C29.98 27.93 29.81 28.03 29.94 27.96C29.81 28.03 29.7 28.14 29.62 28.27C29.54 28.39 29.5 28.54 29.5 28.69C29.5 29.32 29.48 29.86 29.54 30.62C29.55 30.74 29.59 30.85 29.65 30.95C29.71 31.05 29.79 31.14 29.88 31.21C30.23 31.74 30.71 32.13 31.25 32.39C31.92 32.7 32.65 32.92 33.35 33.18C34.04 33.43 34.69 33.71 35.16 34.07C35.63 34.43 35.94 34.82 36.08 35.44C36.1 35.54 36.14 35.64 36.21 35.73C36.27 35.82 36.35 35.9 36.44 35.96C36.53 36.01 36.63 36.05 36.74 36.07C36.85 36.09 36.96 36.09 37.06 36.07C37.17 36.04 37.27 36 37.36 35.93C37.44 35.87 37.52 35.79 37.58 35.7C37.63 35.61 37.67 35.5 37.69 35.4C37.71 35.29 37.7 35.18 37.68 35.08C37.45 34.06 36.85 33.29 36.15 32.76C35.45 32.23 34.65 31.91 33.91 31.64C33.16 31.36 32.46 31.14 31.95 30.9C31.46 30.67 31.25 30.46 31.17 30.28C31.15 29.85 31.15 29.46 31.15 29.05C31.19 29.01 31.25 28.98 31.29 28.94C31.48 28.74 31.69 28.5 31.9 28.24C32.22 27.82 32.45 27.29 32.61 26.74C32.77 26.64 32.96 26.63 33.08 26.47C33.35 26.13 33.51 25.67 33.58 25.09L33.58 25.09C33.64 24.57 33.49 24.18 33.28 23.86C33.43 23.28 33.59 22.65 33.6 21.76C33.61 20.99 33.48 20.17 33.05 19.44C32.64 18.77 31.91 18.26 30.99 18.07C30.4 17.49 29.58 17.21 28.66 17.21C28.66 17.21 28.65 17.21 28.65 17.21C27.11 17.24 25.87 17.69 25.02 18.5C24.18 19.32 23.79 20.45 23.76 21.63C23.76 21.63 23.76 21.63 23.76 21.63C23.75 22.18 23.84 22.7 23.95 23.23C23.45 23.07 22.96 22.92 22.56 22.77C21.88 22.51 21.56 22.24 21.48 22.09C21.45 21.66 21.45 21.27 21.45 20.85C21.49 20.81 21.55 20.78 21.59 20.74C21.79 20.54 21.99 20.3 22.2 20.03C22.52 19.61 22.75 19.09 22.92 18.54C23.08 18.44 23.26 18.43 23.38 18.27C23.65 17.93 23.81 17.47 23.88 16.89C23.92 16.57 23.87 16.3 23.78 16.06C24.43 15.82 25.11 15.6 25.75 15.33C26.57 15 27.42 14.55 27.76 13.61C27.79 13.54 27.81 13.47 27.81 13.4C27.88 12.64 27.86 12.1 27.86 11.47C27.86 11.32 27.82 11.17 27.74 11.05C27.66 10.92 27.55 10.81 27.42 10.74C27.55 10.81 27.38 10.71 27.24 10.57C27.1 10.43 26.93 10.23 26.77 10.02C26.45 9.6 26.2 9.05 26.18 8.92C26.16 8.76 26.1 8.6 25.99 8.48C25.88 8.35 25.73 8.26 25.57 8.22C25.55 8.18 25.46 8.04 25.41 7.67C25.4 7.58 25.42 7.54 25.43 7.51C25.56 7.42 25.66 7.28 25.71 7.13C25.77 6.98 25.77 6.81 25.73 6.65C25.49 5.74 25.38 5.16 25.4 4.45C25.42 3.59 25.67 2.94 26.16 2.46C26.65 2 27.42 1.66 28.67 1.64C29.49 1.64 29.91 1.9 29.97 1.99C30.03 2.1 30.11 2.2 30.22 2.27C30.32 2.34 30.44 2.38 30.57 2.4C31.16 2.48 31.43 2.71 31.64 3.06C31.85 3.42 31.96 3.96 31.96 4.52C31.95 5.45 31.8 6.16 31.65 6.6C31.6 6.76 31.59 6.94 31.65 7.1C31.7 7.27 31.8 7.41 31.94 7.51C31.95 7.54 31.96 7.58 31.95 7.67C31.91 8.04 31.82 8.18 31.79 8.22C31.63 8.26 31.49 8.35 31.38 8.48C31.27 8.6 31.2 8.76 31.18 8.92C31.17 9.05 30.92 9.6 30.59 10.02C30.43 10.23 30.26 10.43 30.12 10.57C29.98 10.71 29.81 10.81 29.94 10.74C29.81 10.81 29.7 10.92 29.62 11.05C29.54 11.17 29.5 11.32 29.5 11.47C29.5 12.1 29.48 12.64 29.54 13.4C29.55 13.52 29.59 13.63 29.65 13.73C29.71 13.83 29.79 13.92 29.88 13.99C30.23 14.52 30.71 14.91 31.25 15.16C31.92 15.48 32.65 15.7 33.35 15.96C34.04 16.21 34.69 16.49 35.16 16.85C35.63 17.21 35.94 17.6 36.08 18.22C36.1 18.32 36.14 18.42 36.21 18.51C36.27 18.6 36.35 18.68 36.44 18.74C36.53 18.79 36.63 18.83 36.74 18.85C36.85 18.87 36.96 18.87 37.06 18.85C37.17 18.82 37.27 18.78 37.36 18.71C37.44 18.65 37.52 18.57 37.58 18.48C37.63 18.39 37.67 18.29 37.69 18.18C37.71 18.07 37.7 17.96 37.68 17.86C37.45 16.84 36.85 16.07 36.15 15.54C35.45 15.01 34.65 14.69 33.91 14.42C33.16 14.14 32.46 13.92 31.95 13.68C31.46 13.45 31.25 13.24 31.17 13.06C31.15 12.63 31.15 12.24 31.15 11.83C31.19 11.79 31.25 11.76 31.29 11.72C31.48 11.52 31.69 11.28 31.9 11.02C32.22 10.6 32.45 10.07 32.61 9.52C32.77 9.42 32.96 9.41 33.08 9.25C33.35 8.91 33.51 8.45 33.58 7.87L33.58 7.87C33.64 7.35 33.49 6.96 33.28 6.64C33.43 6.06 33.59 5.43 33.6 4.54C33.61 3.77 33.48 2.95 33.05 2.22C32.64 1.55 31.91 1.04 30.99 0.85C30.4 0.27 29.58 0 28.66 0C28.66 0 28.65 0 28.65 0Z" fill="url(#paint_linear_51_1240_0)" fill-opacity="1.000000" fill-rule="nonzero"/>
</svg>
