<svg width="26.149658" height="26.665466" viewBox="0 0 26.1497 26.6655" fill="none" xmlns="http://www.w3.org/2000/svg" xmlns:xlink="http://www.w3.org/1999/xlink">
	<desc>
			Created with Pixso.
	</desc>
	<defs/>
	<path id="Vector" d="M15.26 0.01C15.12 0.02 14.97 0.04 14.83 0.08L4.61 2.98C3.46 3.3 2.78 4.51 3.1 5.66L7.89 22.48C7.9 22.54 7.91 22.59 7.94 22.64L8.63 25.09C8.96 26.24 10.16 26.9 11.31 26.58L21.54 23.68C22.68 23.35 23.37 22.14 23.04 20.99L22.37 18.64C22.38 18.5 22.34 18.37 22.26 18.26L17.51 1.56C17.27 0.7 16.54 0.11 15.7 0.01C15.56 -0.01 15.41 -0.01 15.26 0.01ZM15.35 1.15C15.83 1.11 16.27 1.42 16.41 1.89L21.03 18.2L8.85 21.65L4.23 5.33C4.07 4.79 4.39 4.24 4.93 4.08L15.16 1.18C15.22 1.16 15.29 1.15 15.35 1.15ZM20.72 5.01C20.55 5.04 20.4 5.14 20.32 5.29C20.23 5.43 20.21 5.61 20.27 5.77L23.17 15.99C23.26 16.3 23.58 16.48 23.89 16.39C24.2 16.3 24.38 15.98 24.29 15.67L21.39 5.44C21.32 5.19 21.09 5.01 20.83 5.01C20.81 5.01 20.79 5.01 20.77 5.01C20.76 5.01 20.74 5.01 20.72 5.01ZM24 6.84C23.83 6.87 23.69 6.97 23.6 7.12C23.51 7.26 23.49 7.44 23.55 7.6L25 12.71C25.09 13.02 25.41 13.2 25.72 13.11C26.03 13.02 26.21 12.7 26.12 12.39L24.67 7.27C24.61 7.02 24.37 6.84 24.11 6.84C24.09 6.84 24.07 6.84 24.05 6.84C24.04 6.84 24.02 6.84 24 6.84ZM2.36 10.23C2.34 10.23 2.32 10.24 2.3 10.25C2.14 10.28 2 10.37 1.91 10.52C1.82 10.66 1.8 10.83 1.85 10.99L4.75 21.21C4.84 21.52 5.17 21.7 5.48 21.61C5.79 21.52 5.97 21.2 5.88 20.89L2.98 10.66C2.91 10.41 2.68 10.23 2.41 10.23C2.4 10.23 2.38 10.23 2.36 10.23ZM0.53 13.51C0.51 13.51 0.49 13.52 0.47 13.53C0.31 13.56 0.17 13.65 0.08 13.8C-0.01 13.94 -0.03 14.11 0.02 14.27L1.47 19.38C1.56 19.69 1.89 19.87 2.2 19.78C2.51 19.69 2.69 19.37 2.59 19.06L1.14 13.94C1.08 13.69 0.85 13.51 0.58 13.51C0.56 13.51 0.55 13.51 0.53 13.51ZM21.35 19.33L21.92 21.32C22.07 21.87 21.76 22.42 21.21 22.57L10.99 25.47C10.44 25.63 9.89 25.31 9.74 24.77L9.17 22.77L21.35 19.33ZM15.63 21.74C15.57 21.74 15.52 21.74 15.46 21.76C15.04 21.88 14.8 22.33 14.92 22.75C15.04 23.18 15.48 23.42 15.9 23.3C16.32 23.18 16.56 22.74 16.44 22.32C16.34 21.95 16 21.71 15.63 21.74Z" fill="#606571" fill-opacity="1.000000" fill-rule="nonzero"/>
</svg>
