<svg width="37.587158" height="37.591797" viewBox="0 0 37.5872 37.5918" fill="none" xmlns="http://www.w3.org/2000/svg" xmlns:xlink="http://www.w3.org/1999/xlink">
	<desc>
			Created with Pixso.
	</desc>
	<defs>
		<linearGradient x1="18.793535" y1="0.000000" x2="18.793535" y2="37.591873" id="paint_linear_51_1259_0" gradientUnits="userSpaceOnUse">
			<stop stop-color="#FFC619"/>
			<stop offset="0.484375" stop-color="#F69020"/>
			<stop offset="1.000000" stop-color="#EA422A"/>
		</linearGradient>
	</defs>
	<path id="Vector" d="M10.81 0C5.95 2.03 2.03 5.95 0 10.81L1.51 11.44C3.38 6.98 6.98 3.38 11.44 1.51L10.81 0ZM18.79 1.57C9.29 1.57 1.57 9.29 1.57 18.79C1.57 28.29 9.29 36.01 18.79 36.01C28.29 36.01 36.01 28.29 36.01 18.79C36.01 9.29 28.29 1.57 18.79 1.57ZM18.79 3.21C27.41 3.21 34.37 10.18 34.37 18.79C34.37 27.41 27.41 34.37 18.79 34.37C10.18 34.37 3.21 27.41 3.21 18.79C3.21 10.18 10.18 3.21 18.79 3.21ZM17.97 6.49L17.97 17.37C17.72 17.52 17.52 17.72 17.37 17.97C17.23 18.22 17.15 18.5 17.15 18.79C17.15 19.23 17.32 19.64 17.63 19.95C17.94 20.26 18.36 20.43 18.79 20.43C18.93 20.43 19.08 20.41 19.22 20.37L23.95 25.11L25.11 23.95L20.37 19.21C20.41 19.08 20.43 18.93 20.43 18.79C20.43 18.5 20.35 18.22 20.21 17.97C20.07 17.72 19.86 17.52 19.61 17.37L19.61 6.49L17.97 6.49ZM36.08 26.13C34.13 30.61 30.6 34.21 26.14 36.08L26.77 37.59C31.64 35.55 35.47 31.63 37.58 26.79L36.08 26.13Z" fill="url(#paint_linear_51_1259_0)" fill-opacity="1.000000" fill-rule="nonzero"/>
</svg>
