<svg width="40.000000" height="44.000000" viewBox="0 0 40 44" fill="none" xmlns="http://www.w3.org/2000/svg" xmlns:xlink="http://www.w3.org/1999/xlink">
	<desc>
			Created with Pixso.
	</desc>
	<defs/>
	<path id="Vector" d="M3 24C3 33.4 10.6 41 20 41C29.39 41 37 33.4 37 24C37 14.6 29.39 7 20 7C10.6 7 3 14.6 3 24Z" fill="#131517" fill-opacity="1.000000" fill-rule="nonzero"/>
	<path id="Vector" d="M20 44C9 44 0 35 0 24C0 13 9 4 20 4C24.7 4 29.29 5.7 32.89 8.79L30.29 11.8C27.5 9.29 23.79 8 20 8C11.2 8 4 15.2 4 24C4 32.8 11.2 40 20 40L20 44Z" fill="#606571" fill-opacity="1.000000" fill-rule="nonzero"/>
	<path id="Vector" d="M23 12L15 6L23 0L23 12Z" fill="#FFC619" fill-opacity="1.000000" fill-rule="nonzero"/>
	<path id="Vector" d="M7 24C7 24.6 6.6 25 6 25L3 25L3 23L6 23C6.6 23 7 23.4 7 24ZM20 37C19.39 37 19 37.4 19 38L19 41L21 41L21 38C21 37.4 20.6 37 20 37ZM34 23C33.39 23 33 23.4 33 24C33 24.6 33.39 25 34 25L37 25L37 23L34 23Z" fill="#FFFFFF" fill-opacity="1.000000" fill-rule="nonzero"/>
	<path id="Vector" d="M20 44C9 44 0 35 0 24C0 19.29 1.7 14.7 4.79 11.1L7.79 13.7C5.29 16.5 4 20.2 4 24C4 32.8 11.2 40 20 40C28.79 40 36 32.8 36 24C36 15.2 28.79 8 20 8L20 4C31 4 40 13 40 24C40 35 31 44 20 44Z" fill="#FFC619" fill-opacity="1.000000" fill-rule="nonzero"/>
	<path id="Vector" d="M19 30L11 30L11 28.2L14.79 24.2C15.7 23.1 16.2 22.3 16.2 21.7C16.2 21.2 16.1 20.8 15.89 20.5C15.7 20.2 15.39 20.1 14.89 20.1C14.5 20.1 14.1 20.29 13.89 20.6C13.6 21 13.5 21.4 13.5 21.9L11 21.9C11 21.2 11.2 20.5 11.5 19.9C11.89 19.29 12.39 18.79 13 18.5C13.6 18.2 14.1 18 14.89 18C16.2 18 17.2 18.29 17.89 18.9C18.6 19.5 18.89 20.29 18.89 21.4C18.89 21.9 18.79 22.3 18.6 22.8C18.39 23.2 18.2 23.7 17.79 24.2C17.39 24.7 16.79 25.3 16 26.1L14.6 28L19 28L19 30ZM27.79 26L29 26L29 28L27.79 28L27.79 30L25 30L25 28L20.39 28L20.2 26.4L25 18L27.79 18L27.79 26ZM22.79 26L25 26L25 21.6L24.79 21.9L22.79 26Z" fill="#FFFFFF" fill-opacity="1.000000" fill-rule="nonzero"/>
</svg>
